<svg width="293" height="333" viewBox="0 0 293 333" fill="none" xmlns="http://www.w3.org/2000/svg">
<g filter="url(#filter0_d_17362_72)">
<rect width="401.328" height="35.7009" transform="translate(24.7188 -39.061) rotate(26.5975)" fill="#F94D12"/>
<path d="M47.9464 -2.27404C47.3527 -2.57133 46.8503 -2.9437 46.4391 -3.39114C46.035 -3.83501 45.7348 -4.32532 45.5383 -4.86209C45.349 -5.39528 45.2688 -5.94987 45.2978 -6.52586C45.3339 -7.09828 45.4916 -7.66346 45.771 -8.22143C46.0504 -8.77939 46.4084 -9.24429 46.8451 -9.61613C47.2889 -9.98438 47.7846 -10.2506 48.3321 -10.4149C48.8796 -10.5792 49.452 -10.6325 50.0495 -10.5749C50.6469 -10.5173 51.2389 -10.3417 51.8255 -10.048C52.4192 -9.75071 52.9145 -9.38193 53.3114 -8.94165C53.7154 -8.49778 54.0121 -8.00926 54.2014 -7.47607C54.3979 -6.9393 54.4817 -6.38292 54.4527 -5.80693C54.4274 -5.23808 54.2732 -4.6711 53.9902 -4.10599C53.7109 -3.54802 53.3475 -3.08134 52.9 -2.70593C52.4562 -2.33768 51.9605 -2.07142 51.413 -1.90715C50.8763 -1.74646 50.3092 -1.69491 49.7117 -1.75249C49.1215 -1.80649 48.533 -1.98034 47.9464 -2.27404ZM48.6771 -3.76017C49.0133 -3.59183 49.3496 -3.49504 49.6859 -3.4698C50.0293 -3.44099 50.3621 -3.48015 50.6841 -3.5873C51.0062 -3.69445 51.2979 -3.86602 51.5592 -4.102C51.8276 -4.3344 52.0514 -4.62943 52.2305 -4.9871C52.4096 -5.34477 52.5118 -5.70069 52.537 -6.05487C52.5694 -6.40547 52.532 -6.7418 52.4249 -7.06385C52.3249 -7.38232 52.1605 -7.67042 51.9316 -7.92815C51.7028 -8.18587 51.4203 -8.3989 51.0841 -8.56725C50.7479 -8.73559 50.408 -8.83417 50.0646 -8.86299C49.7283 -8.88822 49.3991 -8.84726 49.0771 -8.74011C48.755 -8.63296 48.4598 -8.46319 48.1913 -8.23079C47.93 -7.99481 47.7098 -7.69799 47.5307 -7.34032C47.3552 -6.9898 47.2495 -6.63567 47.2135 -6.27792C47.1882 -5.92374 47.2256 -5.58741 47.3256 -5.26894C47.4328 -4.94688 47.6008 -4.65699 47.8296 -4.39927C48.0584 -4.14154 48.3409 -3.92851 48.6771 -3.76017ZM53.4162 0.303663L57.177 -7.2074L60.5892 -5.4989C61.4047 -5.09058 62.0448 -4.57324 62.5096 -3.94687C62.9779 -3.32767 63.2476 -2.65133 63.3188 -1.91785C63.3899 -1.18438 63.2338 -0.434942 62.8506 0.330471C62.4709 1.08873 61.9644 1.66267 61.3309 2.05228C60.701 2.43474 59.9961 2.62753 59.2161 2.63067C58.4398 2.62665 57.6438 2.42048 56.8284 2.01216L53.4162 0.303663ZM55.869 -0.253071L57.4571 0.54208C57.9578 0.792803 58.4372 0.916505 58.8951 0.913187C59.3638 0.906297 59.786 0.777738 60.1618 0.527512C60.5448 0.280866 60.8545 -0.0785181 61.0909 -0.550642C61.3308 -1.02992 61.4331 -1.49317 61.3975 -1.94041C61.3728 -2.39121 61.2209 -2.80274 60.9421 -3.17498C60.674 -3.55079 60.2895 -3.86405 59.7888 -4.11478L58.2008 -4.90993L55.869 -0.253071ZM65.8648 6.69785C65.2711 6.40056 64.7687 6.02819 64.3575 5.58075C63.9534 5.13688 63.6532 4.64657 63.4567 4.1098C63.2674 3.57661 63.1872 3.02202 63.2162 2.44603C63.2523 1.87361 63.41 1.30842 63.6894 0.75046C63.9688 0.192496 64.3268 -0.272404 64.7635 -0.644238C65.2073 -1.01249 65.703 -1.27875 66.2505 -1.44301C66.798 -1.60728 67.3704 -1.66062 67.9679 -1.60304C68.5653 -1.54546 69.1573 -1.36981 69.7439 -1.07611C70.3376 -0.778824 70.8329 -0.41004 71.2298 0.0302431C71.6339 0.474108 71.9305 0.962634 72.1198 1.49582C72.3163 2.03259 72.4001 2.58897 72.3711 3.16496C72.3458 3.73381 72.1916 4.30078 71.9086 4.8659C71.6293 5.42387 71.2659 5.89055 70.8184 6.26596C70.3746 6.63421 69.8789 6.90047 69.3314 7.06473C68.7947 7.22543 68.2276 7.27698 67.6302 7.2194C67.0399 7.1654 66.4514 6.99155 65.8648 6.69785ZM66.5955 5.21172C66.9318 5.38006 67.268 5.47685 67.6043 5.50209C67.9477 5.5309 68.2805 5.49174 68.6025 5.38459C68.9246 5.27744 69.2163 5.10587 69.4776 4.86989C69.746 4.63749 69.9698 4.34246 70.1489 3.98479C70.328 3.62712 70.4302 3.2712 70.4554 2.91702C70.4878 2.56642 70.4504 2.23009 70.3433 1.90804C70.2433 1.58957 70.0789 1.30147 69.85 1.04374C69.6212 0.786018 69.3387 0.572985 69.0025 0.404642C68.6663 0.2363 68.3264 0.13772 67.983 0.108904C67.6467 0.083669 67.3175 0.124626 66.9955 0.231775C66.6734 0.338924 66.3782 0.508698 66.1097 0.741098C65.8484 0.977079 65.6282 1.2739 65.4491 1.63157C65.2736 1.98209 65.1679 2.33622 65.1319 2.69397C65.1067 3.04815 65.144 3.38448 65.244 3.70295C65.3512 4.02501 65.5192 4.3149 65.748 4.57262C65.9768 4.83034 66.2593 5.04338 66.5955 5.21172ZM71.3346 9.27555L75.0954 1.76449L76.5333 2.48442L78.257 10.1113L77.5595 9.76207L80.2673 4.3541L81.9842 5.21373L78.2233 12.7248L76.7962 12.0102L75.0618 4.37799L75.7592 4.72721L73.0514 10.1352L71.3346 9.27555ZM81.5563 14.3936L84.6079 8.29893L82.2044 7.09546L82.9136 5.67909L89.4589 8.9564L88.7497 10.3728L86.3462 9.1693L83.2945 15.264L81.5563 14.3936ZM90.1123 18.8388C89.5186 18.5415 89.0161 18.1691 88.605 17.7217C88.2009 17.2778 87.9007 16.7875 87.7042 16.2507C87.5149 15.7175 87.4347 15.1629 87.4637 14.5869C87.4998 14.0145 87.6575 13.4493 87.9369 12.8914C88.2162 12.3334 88.5743 11.8685 89.011 11.4967C89.4548 11.1284 89.9505 10.8622 90.498 10.6979C91.0454 10.5336 91.6179 10.4803 92.2154 10.5379C92.8128 10.5954 93.4048 10.7711 93.9914 11.0648C94.5851 11.3621 95.0804 11.7309 95.4773 12.1712C95.8813 12.615 96.178 13.1035 96.3673 13.6367C96.5638 14.1735 96.6476 14.7299 96.6186 15.3059C96.5932 15.8747 96.4391 16.4417 96.1561 17.0068C95.8767 17.5648 95.5133 18.0315 95.0659 18.4069C94.6221 18.7751 94.1264 19.0414 93.5789 19.2056C93.0422 19.3663 92.4751 19.4179 91.8776 19.3603C91.2873 19.3063 90.6989 19.1325 90.1123 18.8388ZM90.843 17.3526C91.1792 17.521 91.5155 17.6178 91.8518 17.643C92.1952 17.6718 92.528 17.6326 92.85 17.5255C93.1721 17.4183 93.4638 17.2468 93.7251 17.0108C93.9935 16.7784 94.2173 16.4834 94.3964 16.1257C94.5755 15.768 94.6776 15.4121 94.7029 15.0579C94.7353 14.7073 94.6979 14.371 94.5908 14.0489C94.4908 13.7305 94.3263 13.4424 94.0975 13.1846C93.8687 12.9269 93.5862 12.7139 93.25 12.5455C92.9138 12.3772 92.5739 12.2786 92.2305 12.2498C91.8942 12.2246 91.565 12.2655 91.243 12.3727C90.9209 12.4798 90.6257 12.6496 90.3572 12.882C90.0959 13.118 89.8757 13.4148 89.6966 13.7725C89.5211 14.123 89.4154 14.4771 89.3794 14.8349C89.3541 15.1891 89.3915 15.5254 89.4915 15.8439C89.5987 16.1659 89.7666 16.4558 89.9955 16.7135C90.2243 16.9713 90.5068 17.1843 90.843 17.3526ZM95.5821 21.4165L99.3429 13.9054L101.081 14.7758L98.0295 20.8705L101.796 22.7563L101.087 24.1726L95.5821 21.4165ZM105.516 26.5514C104.922 26.2541 104.42 25.8818 104.008 25.4343C103.604 24.9905 103.304 24.5001 103.108 23.9634C102.918 23.4302 102.838 22.8756 102.867 22.2996C102.903 21.7272 103.061 21.162 103.34 20.604C103.62 20.0461 103.978 19.5812 104.415 19.2093C104.858 18.8411 105.354 18.5748 105.902 18.4106C106.449 18.2463 107.021 18.193 107.619 18.2505C108.216 18.3081 108.808 18.4838 109.395 18.7775C109.989 19.0748 110.484 19.4435 110.881 19.8838C111.285 20.3277 111.582 20.8162 111.771 21.3494C111.967 21.8862 112.051 22.4426 112.022 23.0185C111.997 23.5874 111.843 24.1544 111.56 24.7195C111.28 25.2775 110.917 25.7441 110.469 26.1195C110.026 26.4878 109.53 26.7541 108.982 26.9183C108.446 27.079 107.879 27.1306 107.281 27.073C106.691 27.019 106.102 26.8451 105.516 26.5514ZM106.247 25.0653C106.583 25.2336 106.919 25.3304 107.255 25.3557C107.599 25.3845 107.932 25.3453 108.254 25.2382C108.576 25.131 108.867 24.9595 109.129 24.7235C109.397 24.4911 109.621 24.196 109.8 23.8384C109.979 23.4807 110.081 23.1248 110.106 22.7706C110.139 22.42 110.101 22.0837 109.994 21.7616C109.894 21.4431 109.73 21.1551 109.501 20.8973C109.272 20.6396 108.99 20.4266 108.654 20.2582C108.317 20.0899 107.977 19.9913 107.634 19.9625C107.298 19.9373 106.969 19.9782 106.647 20.0854C106.324 20.1925 106.029 20.3623 105.761 20.5947C105.499 20.8307 105.279 21.1275 105.1 21.4852C104.925 21.8357 104.819 22.1898 104.783 22.5476C104.758 22.9017 104.795 23.2381 104.895 23.5565C105.002 23.8786 105.17 24.1685 105.399 24.4262C105.628 24.6839 105.91 24.897 106.247 25.0653ZM114.548 31.0738C113.954 30.7766 113.454 30.4096 113.046 29.9729C112.649 29.5326 112.352 29.044 112.156 28.5073C111.967 27.9741 111.886 27.4195 111.915 26.8435C111.951 26.2711 112.111 25.7023 112.394 25.1372C112.677 24.5721 113.037 24.1036 113.473 23.7318C113.917 23.3635 114.413 23.0973 114.96 22.933C115.508 22.7687 116.079 22.719 116.672 22.7837C117.27 22.8413 117.869 23.0205 118.47 23.3214C119.135 23.6545 119.677 24.0644 120.095 24.5512C120.521 25.0416 120.81 25.5892 120.964 26.1939L119.332 26.6652C119.203 26.243 119.012 25.8833 118.758 25.5862C118.508 25.282 118.193 25.035 117.814 24.8451C117.449 24.6624 117.088 24.5531 116.73 24.5171C116.373 24.4812 116.029 24.515 115.7 24.6185C115.378 24.7257 115.083 24.8954 114.814 25.1278C114.553 25.3638 114.333 25.6607 114.154 26.0183C113.978 26.3688 113.874 26.7194 113.842 27.07C113.817 27.4242 113.856 27.7659 113.959 28.0951C114.074 28.4207 114.249 28.7142 114.485 28.9755C114.728 29.2404 115.028 29.4624 115.386 29.6415C115.729 29.8134 116.089 29.9263 116.464 29.9802C116.851 30.0305 117.264 30.0003 117.704 29.8896L118.063 31.6393C117.501 31.7428 116.907 31.7406 116.281 31.633C115.662 31.5288 115.084 31.3425 114.548 31.0738ZM116.587 30.6188L118 27.7968L119.589 28.592L118.063 31.6393L116.587 30.6188ZM119.264 33.274L123.025 25.763L124.763 26.6333L121.002 34.1444L119.264 33.274ZM121.797 34.5427L128.906 28.7079L130.623 29.5675L130.22 38.7602L128.396 37.8468L128.97 29.8402L129.656 30.1841L123.579 35.4345L121.797 34.5427ZM124.277 33.7713L125.399 32.6825L129.262 34.6166L129.073 36.1728L124.277 33.7713ZM138.929 41.0675C138.686 40.9458 138.49 40.7757 138.339 40.5574C138.2 40.3355 138.12 40.0939 138.098 39.8328C138.081 39.5644 138.138 39.2979 138.271 39.0332C138.403 38.7686 138.58 38.5665 138.802 38.4271C139.024 38.2877 139.264 38.2109 139.521 38.1968C139.79 38.179 140.046 38.231 140.289 38.3528C140.532 38.4746 140.723 38.6464 140.863 38.8683C141.013 39.0867 141.099 39.3264 141.12 39.5876C141.141 39.8488 141.086 40.1117 140.953 40.3764C140.82 40.6411 140.641 40.8467 140.416 40.9932C140.194 41.1326 139.949 41.2112 139.681 41.229C139.423 41.2431 139.173 41.1893 138.929 41.0675ZM150.584 49.1176C149.991 48.8203 149.488 48.4479 149.077 48.0005C148.673 47.5566 148.373 47.0663 148.176 46.5295C147.987 45.9963 147.907 45.4417 147.936 44.8657C147.972 44.2933 148.129 43.7281 148.409 43.1702C148.688 42.6122 149.046 42.1473 149.483 41.7755C149.927 41.4072 150.422 41.141 150.97 40.9767C151.517 40.8124 152.09 40.7591 152.687 40.8167C153.285 40.8743 153.877 41.0499 154.463 41.3436C155.057 41.6409 155.552 42.0097 155.949 42.45C156.353 42.8938 156.65 43.3824 156.839 43.9155C157.036 44.4523 157.12 45.0087 157.091 45.5847C157.065 46.1535 156.911 46.7205 156.628 47.2856C156.349 47.8436 155.985 48.3103 155.538 48.6857C155.094 49.0539 154.598 49.3202 154.051 49.4845C153.514 49.6451 152.947 49.6967 152.35 49.6391C151.759 49.5851 151.171 49.4113 150.584 49.1176ZM151.315 47.6314C151.651 47.7998 151.987 47.8966 152.324 47.9218C152.667 47.9506 153 47.9115 153.322 47.8043C153.644 47.6972 153.936 47.5256 154.197 47.2896C154.466 47.0572 154.689 46.7622 154.868 46.4045C155.047 46.0468 155.15 45.6909 155.175 45.3367C155.207 44.9861 155.17 44.6498 155.063 44.3278C154.963 44.0093 154.798 43.7212 154.57 43.4635C154.341 43.2057 154.058 42.9927 153.722 42.8244C153.386 42.656 153.046 42.5574 152.702 42.5286C152.366 42.5034 152.037 42.5443 151.715 42.6515C151.393 42.7586 151.098 42.9284 150.829 43.1608C150.568 43.3968 150.348 43.6936 150.169 44.0513C149.993 44.4018 149.887 44.7559 149.851 45.1137C149.826 45.4679 149.864 45.8042 149.964 46.1227C150.071 46.4447 150.239 46.7346 150.467 46.9923C150.696 47.2501 150.979 47.4631 151.315 47.6314ZM156.054 51.6953L159.815 44.1842L163.227 45.8927C164.043 46.301 164.683 46.8184 165.147 47.4447C165.616 48.0639 165.886 48.7403 165.957 49.4738C166.028 50.2072 165.872 50.9567 165.488 51.7221C165.109 52.4803 164.602 53.0543 163.969 53.4439C163.339 53.8263 162.634 54.0191 161.854 54.0223C161.078 54.0183 160.282 53.8121 159.466 53.4038L156.054 51.6953ZM158.507 51.1385L160.095 51.9337C160.596 52.1844 161.075 52.3081 161.533 52.3048C162.002 52.2979 162.424 52.1693 162.8 51.9191C163.183 51.6725 163.492 51.3131 163.729 50.841C163.969 50.3617 164.071 49.8984 164.035 49.4512C164.011 49.0004 163.859 48.5889 163.58 48.2166C163.312 47.8408 162.927 47.5276 162.427 47.2768L160.839 46.4817L158.507 51.1385ZM168.503 58.0895C167.909 57.7922 167.407 57.4198 166.995 56.9724C166.591 56.5285 166.291 56.0382 166.095 55.5014C165.905 54.9682 165.825 54.4136 165.854 53.8376C165.89 53.2652 166.048 52.7 166.327 52.1421C166.607 51.5841 166.965 51.1192 167.401 50.7474C167.845 50.3791 168.341 50.1129 168.888 49.9486C169.436 49.7843 170.008 49.731 170.606 49.7886C171.203 49.8462 171.795 50.0218 172.382 50.3155C172.976 50.6128 173.471 50.9816 173.868 51.4219C174.272 51.8657 174.568 52.3542 174.758 52.8874C174.954 53.4242 175.038 53.9806 175.009 54.5566C174.984 55.1254 174.829 55.6924 174.547 56.2575C174.267 56.8155 173.904 57.2822 173.456 57.6576C173.012 58.0258 172.517 58.2921 171.969 58.4563C171.433 58.617 170.865 58.6686 170.268 58.611C169.678 58.557 169.089 58.3832 168.503 58.0895ZM169.233 56.6033C169.57 56.7717 169.906 56.8685 170.242 56.8937C170.586 56.9225 170.918 56.8833 171.24 56.7762C171.562 56.669 171.854 56.4975 172.115 56.2615C172.384 56.0291 172.608 55.7341 172.787 55.3764C172.966 55.0187 173.068 54.6628 173.093 54.3086C173.126 53.958 173.088 53.6217 172.981 53.2996C172.881 52.9812 172.717 52.6931 172.488 52.4354C172.259 52.1776 171.977 51.9646 171.64 51.7963C171.304 51.6279 170.964 51.5293 170.621 51.5005C170.285 51.4753 169.955 51.5162 169.633 51.6234C169.311 51.7305 169.016 51.9003 168.748 52.1327C168.486 52.3687 168.266 52.6655 168.087 53.0232C167.912 53.3737 167.806 53.7278 167.77 54.0856C167.745 54.4398 167.782 54.7761 167.882 55.0946C167.989 55.4166 168.157 55.7065 168.386 55.9642C168.615 56.222 168.897 56.435 169.233 56.6033ZM173.972 60.6672L177.733 53.1561L179.171 53.876L180.895 61.5029L180.197 61.1537L182.905 55.7457L184.622 56.6053L180.861 64.1164L179.434 63.4018L177.7 55.7696L178.397 56.1188L175.689 61.5268L173.972 60.6672ZM184.194 65.7852L187.246 59.6905L184.842 58.4871L185.551 57.0707L192.097 60.348L191.388 61.7644L188.984 60.5609L185.932 66.6556L184.194 65.7852ZM192.75 70.2304C192.156 69.9331 191.654 69.5607 191.243 69.1133C190.839 68.6694 190.539 68.1791 190.342 67.6423C190.153 67.1091 190.073 66.5545 190.102 65.9785C190.138 65.4061 190.295 64.8409 190.575 64.283C190.854 63.725 191.212 63.2601 191.649 62.8883C192.093 62.52 192.588 62.2538 193.136 62.0895C193.683 61.9252 194.256 61.8719 194.853 61.9295C195.451 61.9871 196.043 62.1627 196.629 62.4564C197.223 62.7537 197.718 63.1225 198.115 63.5628C198.519 64.0066 198.816 64.4951 199.005 65.0283C199.202 65.5651 199.285 66.1215 199.256 66.6975C199.231 67.2663 199.077 67.8333 198.794 68.3984C198.515 68.9564 198.151 69.4231 197.704 69.7985C197.26 70.1667 196.764 70.433 196.217 70.5973C195.68 70.7579 195.113 70.8095 194.516 70.7519C193.925 70.6979 193.337 70.5241 192.75 70.2304ZM193.481 68.7442C193.817 68.9126 194.153 69.0094 194.49 69.0346C194.833 69.0634 195.166 69.0243 195.488 68.9171C195.81 68.81 196.102 68.6384 196.363 68.4024C196.631 68.17 196.855 67.875 197.034 67.5173C197.213 67.1596 197.316 66.8037 197.341 66.4495C197.373 66.0989 197.336 65.7626 197.229 65.4406C197.129 65.1221 196.964 64.834 196.735 64.5763C196.507 64.3185 196.224 64.1055 195.888 63.9372C195.552 63.7688 195.212 63.6702 194.868 63.6414C194.532 63.6162 194.203 63.6571 193.881 63.7643C193.559 63.8714 193.264 64.0412 192.995 64.2736C192.734 64.5096 192.514 64.8064 192.334 65.1641C192.159 65.5146 192.053 65.8687 192.017 66.2265C191.992 66.5807 192.029 66.917 192.129 67.2355C192.237 67.5575 192.405 67.8474 192.633 68.1051C192.862 68.3629 193.145 68.5759 193.481 68.7442ZM198.22 72.8081L201.981 65.297L203.719 66.1674L200.667 72.2621L204.434 74.1479L203.725 75.5642L198.22 72.8081ZM208.154 77.943C207.56 77.6458 207.058 77.2734 206.646 76.8259C206.242 76.3821 205.942 75.8918 205.746 75.355C205.556 74.8218 205.476 74.2672 205.505 73.6912C205.541 73.1188 205.699 72.5536 205.978 71.9957C206.258 71.4377 206.616 70.9728 207.052 70.601C207.496 70.2327 207.992 69.9664 208.539 69.8022C209.087 69.6379 209.659 69.5846 210.257 69.6422C210.854 69.6997 211.446 69.8754 212.033 70.1691C212.627 70.4664 213.122 70.8352 213.519 71.2754C213.923 71.7193 214.219 72.2078 214.409 72.741C214.605 73.2778 214.689 73.8342 214.66 74.4102C214.635 74.979 214.481 75.546 214.198 76.1111C213.918 76.6691 213.555 77.1357 213.107 77.5112C212.663 77.8794 212.168 78.1457 211.62 78.3099C211.084 78.4706 210.517 78.5222 209.919 78.4646C209.329 78.4106 208.74 78.2367 208.154 77.943ZM208.884 76.4569C209.221 76.6253 209.557 76.722 209.893 76.7473C210.237 76.7761 210.569 76.7369 210.891 76.6298C211.214 76.5226 211.505 76.3511 211.766 76.1151C212.035 75.8827 212.259 75.5877 212.438 75.23C212.617 74.8723 212.719 74.5164 212.744 74.1622C212.777 73.8116 212.739 73.4753 212.632 73.1532C212.532 72.8348 212.368 72.5467 212.139 72.2889C211.91 72.0312 211.628 71.8182 211.291 71.6498C210.955 71.4815 210.615 71.3829 210.272 71.3541C209.936 71.3289 209.606 71.3698 209.284 71.477C208.962 71.5841 208.667 71.7539 208.399 71.9863C208.137 72.2223 207.917 72.5191 207.738 72.8768C207.563 73.2273 207.457 73.5814 207.421 73.9392C207.396 74.2933 207.433 74.6297 207.533 74.9481C207.64 75.2702 207.808 75.5601 208.037 75.8178C208.266 76.0755 208.548 76.2886 208.884 76.4569ZM217.186 82.4655C216.592 82.1682 216.091 81.8012 215.684 81.3645C215.287 80.9242 214.99 80.4357 214.794 79.8989C214.604 79.3657 214.524 78.8111 214.553 78.2351C214.589 77.6627 214.749 77.0939 215.032 76.5288C215.315 75.9637 215.675 75.4952 216.111 75.1234C216.555 74.7551 217.051 74.4889 217.598 74.3246C218.146 74.1603 218.716 74.1106 219.31 74.1753C219.908 74.2329 220.507 74.4121 221.108 74.713C221.773 75.0461 222.315 75.4561 222.733 75.9429C223.159 76.4332 223.448 76.9808 223.602 77.5855L221.97 78.0569C221.841 77.6346 221.65 77.2749 221.396 76.9778C221.146 76.6736 220.831 76.4266 220.452 76.2367C220.087 76.0541 219.726 75.9447 219.368 75.9088C219.011 75.8728 218.667 75.9066 218.338 76.0101C218.016 76.1173 217.721 76.2871 217.452 76.5195C217.191 76.7554 216.971 77.0523 216.792 77.4099C216.616 77.7604 216.512 78.111 216.48 78.4616C216.454 78.8158 216.494 79.1575 216.597 79.4867C216.711 79.8123 216.887 80.1058 217.123 80.3671C217.366 80.632 217.666 80.854 218.024 81.0331C218.367 81.205 218.727 81.3179 219.102 81.3718C219.489 81.4221 219.902 81.3919 220.342 81.2812L220.701 83.0309C220.139 83.1344 219.545 83.1322 218.919 83.0246C218.3 82.9205 217.722 82.7341 217.186 82.4655ZM219.225 82.0105L220.638 79.1884L222.226 79.9836L220.701 83.0309L219.225 82.0105ZM221.902 84.6657L225.662 77.1546L227.401 78.025L223.64 85.536L221.902 84.6657ZM224.435 85.9343L231.544 80.0995L233.261 80.9591L232.858 90.1518L231.034 89.2384L231.608 81.2319L232.294 81.5757L226.216 86.8261L224.435 85.9343ZM226.915 85.1629L228.037 84.0741L231.9 86.0083L231.711 87.5645L226.915 85.1629ZM241.567 92.4591C241.324 92.3374 241.127 92.1673 240.977 91.949C240.838 91.7271 240.758 91.4855 240.736 91.2244C240.718 90.956 240.776 90.6895 240.908 90.4248C241.041 90.1602 241.218 89.9581 241.44 89.8187C241.662 89.6793 241.902 89.6025 242.159 89.5884C242.428 89.5706 242.683 89.6227 242.927 89.7444C243.17 89.8662 243.361 90.0381 243.501 90.2599C243.651 90.4783 243.736 90.718 243.758 90.9792C243.779 91.2404 243.723 91.5033 243.591 91.768C243.458 92.0327 243.279 92.2383 243.054 92.3849C242.832 92.5243 242.587 92.6028 242.319 92.6206C242.061 92.6347 241.811 92.5809 241.567 92.4591ZM253.222 100.509C252.628 100.212 252.126 99.8395 251.715 99.3921C251.311 98.9482 251.011 98.4579 250.814 97.9211C250.625 97.3879 250.545 96.8334 250.574 96.2574C250.61 95.6849 250.767 95.1198 251.047 94.5618C251.326 94.0038 251.684 93.5389 252.121 93.1671C252.565 92.7988 253.06 92.5326 253.608 92.3683C254.155 92.2041 254.728 92.1507 255.325 92.2083C255.923 92.2659 256.515 92.4415 257.101 92.7352C257.695 93.0325 258.19 93.4013 258.587 93.8416C258.991 94.2854 259.288 94.774 259.477 95.3071C259.674 95.8439 259.757 96.4003 259.728 96.9763C259.703 97.5451 259.549 98.1121 259.266 98.6772C258.987 99.2352 258.623 99.7019 258.176 100.077C257.732 100.446 257.236 100.712 256.689 100.876C256.152 101.037 255.585 101.088 254.988 101.031C254.397 100.977 253.809 100.803 253.222 100.509ZM253.953 99.0231C254.289 99.1914 254.625 99.2882 254.962 99.3134C255.305 99.3422 255.638 99.3031 255.96 99.1959C256.282 99.0888 256.574 98.9172 256.835 98.6812C257.103 98.4488 257.327 98.1538 257.506 97.7961C257.685 97.4384 257.788 97.0825 257.813 96.7283C257.845 96.3777 257.808 96.0414 257.701 95.7194C257.601 95.4009 257.436 95.1128 257.207 94.8551C256.979 94.5973 256.696 94.3843 256.36 94.216C256.024 94.0476 255.684 93.949 255.34 93.9202C255.004 93.895 254.675 93.936 254.353 94.0431C254.031 94.1503 253.736 94.32 253.467 94.5524C253.206 94.7884 252.986 95.0852 252.806 95.4429C252.631 95.7934 252.525 96.1476 252.489 96.5053C252.464 96.8595 252.501 97.1958 252.601 97.5143C252.709 97.8363 252.877 98.1262 253.105 98.3839C253.334 98.6417 253.617 98.8547 253.953 99.0231ZM258.692 103.087L262.453 95.5758L263.891 96.2958L265.614 103.923L264.917 103.573L267.625 98.1654L269.342 99.0251L265.581 106.536L264.154 105.822L262.419 98.1893L263.117 98.5385L260.409 103.947L258.692 103.087ZM267.358 107.426L271.119 99.9149L274.531 101.623C275.346 102.032 275.986 102.549 276.451 103.175C276.919 103.795 277.189 104.471 277.26 105.204C277.331 105.938 277.175 106.687 276.792 107.453C276.413 108.211 275.906 108.785 275.272 109.175C274.643 109.557 273.938 109.75 273.158 109.753C272.381 109.749 271.585 109.543 270.77 109.134L267.358 107.426ZM269.811 106.869L271.399 107.664C271.899 107.915 272.379 108.039 272.837 108.035C273.305 108.029 273.728 107.9 274.103 107.65C274.486 107.403 274.796 107.044 275.032 106.572C275.272 106.092 275.375 105.629 275.339 105.182C275.314 104.731 275.163 104.32 274.884 103.947C274.616 103.571 274.231 103.258 273.73 103.007L272.142 102.212L269.811 106.869ZM279.806 113.82C279.213 113.523 278.71 113.15 278.299 112.703C277.895 112.259 277.595 111.769 277.398 111.232C277.209 110.699 277.129 110.144 277.158 109.568C277.194 108.996 277.352 108.431 277.631 107.873C277.91 107.315 278.268 106.85 278.705 106.478C279.149 106.11 279.645 105.844 280.192 105.679C280.74 105.515 281.312 105.462 281.909 105.519C282.507 105.577 283.099 105.752 283.685 106.046C284.279 106.343 284.775 106.712 285.171 107.152C285.575 107.596 285.872 108.085 286.061 108.618C286.258 109.155 286.342 109.711 286.313 110.287C286.287 110.856 286.133 111.423 285.85 111.988C285.571 112.546 285.207 113.013 284.76 113.388C284.316 113.756 283.82 114.023 283.273 114.187C282.736 114.348 282.169 114.399 281.572 114.342C280.981 114.288 280.393 114.114 279.806 113.82ZM280.537 112.334C280.873 112.502 281.21 112.599 281.546 112.624C281.889 112.653 282.222 112.614 282.544 112.507C282.866 112.4 283.158 112.228 283.419 111.992C283.688 111.76 283.911 111.465 284.09 111.107C284.27 110.749 284.372 110.393 284.397 110.039C284.429 109.689 284.392 109.352 284.285 109.03C284.185 108.712 284.02 108.424 283.792 108.166C283.563 107.908 283.28 107.695 282.944 107.527C282.608 107.359 282.268 107.26 281.925 107.231C281.588 107.206 281.259 107.247 280.937 107.354C280.615 107.461 280.32 107.631 280.051 107.863C279.79 108.099 279.57 108.396 279.391 108.754C279.215 109.104 279.109 109.458 279.073 109.816C279.048 110.17 279.086 110.507 279.186 110.825C279.293 111.147 279.461 111.437 279.69 111.695C279.918 111.953 280.201 112.166 280.537 112.334ZM285.276 116.398L289.037 108.887L290.475 109.607L292.199 117.234L291.501 116.884L294.209 111.476L295.926 112.336L292.165 119.847L290.738 119.132L289.003 111.5L289.701 111.849L286.993 117.257L285.276 116.398ZM295.498 121.516L298.549 115.421L296.146 114.218L296.855 112.801L303.401 116.079L302.691 117.495L300.288 116.292L297.236 122.386L295.498 121.516ZM304.054 125.961C303.46 125.664 302.958 125.291 302.547 124.844C302.143 124.4 301.842 123.91 301.646 123.373C301.456 122.84 301.376 122.285 301.405 121.709C301.441 121.137 301.599 120.572 301.878 120.014C302.158 119.456 302.516 118.991 302.953 118.619C303.396 118.251 303.892 117.984 304.44 117.82C304.987 117.656 305.559 117.603 306.157 117.66C306.754 117.718 307.346 117.893 307.933 118.187C308.527 118.484 309.022 118.853 309.419 119.293C309.823 119.737 310.12 120.226 310.309 120.759C310.505 121.296 310.589 121.852 310.56 122.428C310.535 122.997 310.381 123.564 310.098 124.129C309.818 124.687 309.455 125.154 309.007 125.529C308.564 125.897 308.068 126.164 307.52 126.328C306.984 126.489 306.417 126.54 305.819 126.483C305.229 126.429 304.64 126.255 304.054 125.961ZM304.785 124.475C305.121 124.643 305.457 124.74 305.793 124.765C306.137 124.794 306.47 124.755 306.792 124.648C307.114 124.541 307.405 124.369 307.667 124.133C307.935 123.901 308.159 123.606 308.338 123.248C308.517 122.89 308.619 122.534 308.644 122.18C308.677 121.83 308.639 121.493 308.532 121.171C308.432 120.853 308.268 120.565 308.039 120.307C307.81 120.049 307.528 119.836 307.192 119.668C306.855 119.499 306.516 119.401 306.172 119.372C305.836 119.347 305.507 119.388 305.185 119.495C304.862 119.602 304.567 119.772 304.299 120.004C304.037 120.24 303.817 120.537 303.638 120.895C303.463 121.245 303.357 121.599 303.321 121.957C303.296 122.311 303.333 122.648 303.433 122.966C303.54 123.288 303.708 123.578 303.937 123.836C304.166 124.094 304.448 124.307 304.785 124.475ZM309.524 128.539L313.285 121.028L315.023 121.898L311.971 127.993L315.737 129.879L315.028 131.295L309.524 128.539ZM319.457 133.674C318.864 133.376 318.361 133.004 317.95 132.557C317.546 132.113 317.246 131.622 317.049 131.086C316.86 130.552 316.78 129.998 316.809 129.422C316.845 128.849 317.003 128.284 317.282 127.726C317.561 127.168 317.919 126.703 318.356 126.332C318.8 125.963 319.296 125.697 319.843 125.533C320.391 125.369 320.963 125.315 321.56 125.373C322.158 125.43 322.75 125.606 323.337 125.9C323.93 126.197 324.426 126.566 324.822 127.006C325.226 127.45 325.523 127.938 325.712 128.472C325.909 129.008 325.993 129.565 325.964 130.141C325.938 130.71 325.784 131.277 325.501 131.842C325.222 132.4 324.858 132.866 324.411 133.242C323.967 133.61 323.472 133.876 322.924 134.041C322.387 134.201 321.82 134.253 321.223 134.195C320.632 134.141 320.044 133.967 319.457 133.674ZM320.188 132.188C320.524 132.356 320.861 132.453 321.197 132.478C321.54 132.507 321.873 132.468 322.195 132.36C322.517 132.253 322.809 132.082 323.07 131.846C323.339 131.613 323.562 131.318 323.741 130.961C323.921 130.603 324.023 130.247 324.048 129.893C324.08 129.542 324.043 129.206 323.936 128.884C323.836 128.565 323.671 128.277 323.443 128.02C323.214 127.762 322.931 127.549 322.595 127.38C322.259 127.212 321.919 127.114 321.576 127.085C321.239 127.06 320.91 127.1 320.588 127.208C320.266 127.315 319.971 127.485 319.702 127.717C319.441 127.953 319.221 128.25 319.042 128.607C318.866 128.958 318.76 129.312 318.724 129.67C318.699 130.024 318.737 130.36 318.837 130.679C318.944 131.001 319.112 131.291 319.341 131.548C319.569 131.806 319.852 132.019 320.188 132.188ZM328.489 138.196C327.896 137.899 327.395 137.532 326.987 137.095C326.591 136.655 326.294 136.166 326.097 135.63C325.908 135.096 325.828 134.542 325.857 133.966C325.893 133.393 326.053 132.825 326.335 132.259C326.618 131.694 326.978 131.226 327.415 130.854C327.859 130.486 328.354 130.22 328.902 130.055C329.449 129.891 330.02 129.841 330.614 129.906C331.211 129.964 331.811 130.143 332.411 130.444C333.077 130.777 333.619 131.187 334.037 131.674C334.462 132.164 334.752 132.711 334.905 133.316L333.274 133.787C333.145 133.365 332.954 133.006 332.7 132.708C332.45 132.404 332.135 132.157 331.756 131.967C331.391 131.785 331.03 131.675 330.672 131.639C330.314 131.603 329.971 131.637 329.642 131.741C329.32 131.848 329.024 132.018 328.756 132.25C328.495 132.486 328.274 132.783 328.095 133.141C327.92 133.491 327.816 133.842 327.783 134.192C327.758 134.546 327.797 134.888 327.901 135.217C328.015 135.543 328.19 135.836 328.426 136.098C328.669 136.363 328.97 136.585 329.327 136.764C329.671 136.936 330.03 137.049 330.406 137.102C330.792 137.153 331.206 137.123 331.646 137.012L332.004 138.762C331.443 138.865 330.849 138.863 330.223 138.755C329.604 138.651 329.026 138.465 328.489 138.196ZM330.529 137.741L331.942 134.919L333.53 135.714L332.004 138.762L330.529 137.741ZM333.205 140.396L336.966 132.885L338.704 133.756L334.944 141.267L333.205 140.396ZM335.739 141.665L342.848 135.83L344.564 136.69L344.162 145.882L342.338 144.969L342.911 136.962L343.598 137.306L337.52 142.557L335.739 141.665ZM338.219 140.894L339.341 139.805L343.204 141.739L343.015 143.295L338.219 140.894Z" fill="#FAFAFA"/>
</g>
<g filter="url(#filter1_d_17362_72)">
<rect width="506.624" height="35.7009" transform="translate(52.5156 -60.4819) rotate(45)" fill="#F94D12"/>
<path d="M86.4891 5.30354C85.6463 4.46066 85.222 3.56688 85.2163 2.62219C85.2107 1.67749 85.6434 0.769567 86.5146 -0.101589L89.8408 -3.42782L91.2154 -2.0532L87.9401 1.22212C87.3744 1.7878 87.0831 2.31106 87.0661 2.79189C87.0492 3.27273 87.25 3.72244 87.6686 4.14105C88.0872 4.55966 88.5369 4.76048 89.0177 4.74351C89.4986 4.72654 90.0218 4.43521 90.5875 3.86952L93.8628 0.594204L95.2205 1.95185L91.8943 5.27808C91.0231 6.14924 90.1152 6.58199 89.1705 6.57633C88.2258 6.57067 87.332 6.14641 86.4891 5.30354ZM90.6392 9.24992L96.5789 3.31022L97.7159 4.44725L96.9437 12.2283L96.3922 11.6767L100.669 7.40013L102.026 8.75777L96.0867 14.6975L94.9582 13.5689L95.7218 5.77944L96.2734 6.33098L91.9968 10.6076L90.6392 9.24992ZM97.492 16.1028L103.432 10.1631L104.806 11.5377L98.8666 17.4774L97.492 16.1028ZM100.276 18.887L106.216 12.9473L108.914 15.6456C109.559 16.2905 110.003 16.9835 110.246 17.7245C110.495 18.4599 110.538 19.1868 110.374 19.9052C110.21 20.6237 109.825 21.2855 109.22 21.8908C108.62 22.4904 107.958 22.8751 107.234 23.0448C106.516 23.2089 105.786 23.1693 105.045 22.926C104.31 22.6771 103.619 22.2302 102.975 21.5853L100.276 18.887ZM102.779 19.1331L104.035 20.3889C104.431 20.7849 104.847 21.0536 105.283 21.195C105.729 21.3364 106.171 21.3477 106.606 21.229C107.048 21.1158 107.455 20.8726 107.828 20.4992C108.207 20.1202 108.45 19.7129 108.558 19.2773C108.677 18.8418 108.663 18.4034 108.515 17.9621C108.38 17.5209 108.114 17.1023 107.718 16.7063L106.462 15.4505L102.779 19.1331ZM106.423 25.0338L115.01 21.7415L116.368 23.0992L113.084 31.6948L111.641 30.2523L114.713 22.8361L115.256 23.3792L107.832 26.4424L106.423 25.0338ZM109.02 25.0847L110.428 24.4059L113.483 27.4606L112.812 28.8776L109.02 25.0847ZM120.619 36.6335C120.427 36.4411 120.294 36.2177 120.22 35.9631C120.158 35.7086 120.158 35.454 120.22 35.1994C120.288 34.9392 120.427 34.7045 120.636 34.4952C120.845 34.2859 121.077 34.1501 121.332 34.0879C121.587 34.0256 121.838 34.0285 122.087 34.0964C122.347 34.1642 122.574 34.2943 122.766 34.4867C122.958 34.679 123.086 34.9025 123.148 35.157C123.221 35.4116 123.227 35.6661 123.165 35.9207C123.103 36.1752 122.967 36.4072 122.757 36.6165C122.548 36.8258 122.313 36.9644 122.053 37.0323C121.799 37.0945 121.541 37.0917 121.281 37.0238C121.032 36.9559 120.812 36.8258 120.619 36.6335ZM126.488 45.302C125.645 44.4592 125.22 43.5654 125.215 42.6207C125.209 41.676 125.642 40.7681 126.513 39.8969L129.839 36.5707L131.214 37.9453L127.939 41.2206C127.373 41.7863 127.082 42.3096 127.065 42.7904C127.048 43.2712 127.248 43.7209 127.667 44.1395C128.086 44.5582 128.535 44.759 129.016 44.742C129.497 44.725 130.02 44.4337 130.586 43.868L133.861 40.5927L135.219 41.9503L131.893 45.2766C131.022 46.1477 130.114 46.5805 129.169 46.5748C128.224 46.5692 127.33 46.1449 126.488 45.302ZM130.638 49.2484L136.577 43.3087L137.714 44.4457L136.942 52.2267L136.391 51.6752L140.667 47.3986L142.025 48.7563L136.085 54.696L134.957 53.5674L135.72 45.7779L136.272 46.3295L131.995 50.6061L130.638 49.2484ZM137.491 56.1013L143.43 50.1616L144.805 51.5362L138.865 57.4759L137.491 56.1013ZM140.275 58.8855L146.214 52.9458L148.913 55.6441C149.558 56.289 150.002 56.982 150.245 57.723C150.494 58.4584 150.536 59.1853 150.372 59.9037C150.208 60.6222 149.824 61.284 149.218 61.8893C148.619 62.4889 147.957 62.8736 147.233 63.0433C146.514 63.2073 145.785 63.1677 145.043 62.9245C144.308 62.6756 143.618 62.2287 142.973 61.5838L140.275 58.8855ZM142.778 59.1316L144.034 60.3874C144.43 60.7834 144.845 61.0521 145.281 61.1935C145.728 61.3349 146.169 61.3462 146.605 61.2274C147.046 61.1143 147.453 60.8711 147.827 60.4977C148.206 60.1187 148.449 59.7114 148.556 59.2758C148.675 58.8403 148.661 58.4018 148.514 57.9606C148.378 57.5194 148.112 57.1008 147.716 56.7048L146.461 55.449L142.778 59.1316ZM146.422 65.0323L155.009 61.74L156.366 63.0977L153.082 71.6932L151.64 70.2507L154.712 62.8346L155.255 63.3777L147.83 66.4409L146.422 65.0323ZM149.018 65.0832L150.427 64.4044L153.481 67.4591L152.811 68.8761L149.018 65.0832ZM153.699 72.3095L159.638 66.3698L162.337 69.0681C162.982 69.713 163.426 70.406 163.669 71.147C163.918 71.8824 163.96 72.6093 163.796 73.3277C163.632 74.0461 163.247 74.708 162.642 75.3133C162.043 75.9129 161.381 76.2976 160.657 76.4673C159.938 76.6313 159.208 76.5917 158.467 76.3485C157.732 76.0996 157.042 75.6527 156.397 75.0078L153.699 72.3095ZM156.202 72.5556L157.458 73.8114C157.854 74.2074 158.269 74.4761 158.705 74.6175C159.152 74.7589 159.593 74.7702 160.029 74.6514C160.47 74.5383 160.877 74.295 161.251 73.9217C161.63 73.5427 161.873 73.1354 161.98 72.6998C162.099 72.2642 162.085 71.8258 161.938 71.3846C161.802 70.9434 161.536 70.5247 161.14 70.1288L159.884 68.8729L156.202 72.5556ZM165.52 77.0372L168.38 79.8968L167.311 80.9659L164.451 78.1064L165.52 77.0372ZM163.178 79.5828L166.411 82.8157L165.308 83.9188L160.709 79.3198L166.649 73.3801L171.137 77.8688L170.034 78.9719L166.912 75.8493L163.178 79.5828ZM168.252 87.066C167.776 86.5908 167.383 86.0732 167.072 85.5132C166.767 84.9475 166.583 84.4299 166.521 83.9604L168.022 83.3919C168.096 83.8274 168.246 84.2772 168.472 84.741C168.71 85.2049 169.007 85.615 169.363 85.9714C169.635 86.2429 169.878 86.4352 170.093 86.5484C170.319 86.6615 170.52 86.7096 170.695 86.6926C170.871 86.6757 171.021 86.605 171.145 86.4805C171.303 86.3221 171.366 86.1354 171.332 85.9205C171.303 85.6999 171.216 85.4594 171.069 85.1992C170.927 84.9334 170.758 84.6505 170.56 84.3507C170.373 84.0509 170.195 83.7369 170.025 83.4088C169.861 83.0864 169.739 82.7611 169.66 82.433C169.581 82.1049 169.578 81.774 169.652 81.4402C169.731 81.1121 169.929 80.7897 170.246 80.4729C170.585 80.1335 170.984 79.9157 171.442 79.8196C171.912 79.7234 172.412 79.7771 172.944 79.9808C173.487 80.1844 174.039 80.5663 174.599 81.1263C174.972 81.4996 175.294 81.9126 175.566 82.3651C175.843 82.812 176.033 83.2618 176.134 83.7143L174.666 84.3337C174.548 83.8982 174.386 83.505 174.183 83.1543C173.985 82.7979 173.753 82.4868 173.487 82.2209C173.221 81.955 172.972 81.7683 172.74 81.6609C172.508 81.5534 172.305 81.5138 172.129 81.5421C171.96 81.5647 171.81 81.6411 171.68 81.7712C171.527 81.9239 171.465 82.1106 171.493 82.3312C171.527 82.5462 171.617 82.7838 171.764 83.044C171.912 83.3042 172.078 83.5842 172.265 83.884C172.457 84.1895 172.638 84.5006 172.808 84.8174C172.984 85.1398 173.111 85.4651 173.19 85.7932C173.269 86.1213 173.269 86.4494 173.19 86.7775C173.116 87.1112 172.924 87.4337 172.613 87.7448C172.279 88.0786 171.88 88.2907 171.417 88.3812C170.953 88.4717 170.449 88.4151 169.906 88.2115C169.369 88.0135 168.817 87.6317 168.252 87.066ZM178.732 94.746C178.539 94.5537 178.406 94.3303 178.333 94.0757C178.271 93.8211 178.271 93.5666 178.333 93.312C178.401 93.0518 178.539 92.817 178.749 92.6077C178.958 92.3984 179.19 92.2627 179.445 92.2004C179.699 92.1382 179.951 92.141 180.2 92.2089C180.46 92.2768 180.686 92.4069 180.879 92.5993C181.071 92.7916 181.198 93.015 181.26 93.2696C181.334 93.5242 181.34 93.7787 181.277 94.0333C181.215 94.2878 181.079 94.5198 180.87 94.7291C180.661 94.9384 180.426 95.077 180.166 95.1448C179.911 95.2071 179.654 95.2042 179.394 95.1364C179.145 95.0685 178.924 94.9384 178.732 94.746ZM184.6 103.415C183.757 102.572 183.333 101.678 183.327 100.733C183.322 99.7886 183.754 98.8806 184.626 98.0095L187.952 94.6833L189.326 96.0579L186.051 99.3332C185.485 99.8989 185.194 100.422 185.177 100.903C185.16 101.384 185.361 101.834 185.78 102.252C186.198 102.671 186.648 102.872 187.129 102.855C187.61 102.838 188.133 102.546 188.699 101.981L191.974 98.7053L193.332 100.063L190.005 103.389C189.134 104.26 188.226 104.693 187.282 104.687C186.337 104.682 185.443 104.257 184.6 103.415ZM188.75 107.361L194.69 101.421L195.827 102.558L195.055 110.339L194.503 109.788L198.78 105.511L200.137 106.869L194.198 112.809L193.069 111.68L193.833 103.891L194.384 104.442L190.108 108.719L188.75 107.361ZM195.603 114.214L201.543 108.274L202.917 109.649L196.978 115.588L195.603 114.214ZM198.387 116.998L204.327 111.058L207.025 113.757C207.67 114.402 208.114 115.095 208.358 115.836C208.606 116.571 208.649 117.298 208.485 118.016C208.321 118.735 207.936 119.397 207.331 120.002C206.731 120.602 206.069 120.986 205.345 121.156C204.627 121.32 203.897 121.28 203.156 121.037C202.421 120.788 201.731 120.341 201.086 119.696L198.387 116.998ZM200.89 117.244L202.146 118.5C202.542 118.896 202.958 119.165 203.394 119.306C203.841 119.448 204.282 119.459 204.717 119.34C205.159 119.227 205.566 118.984 205.939 118.61C206.318 118.231 206.561 117.824 206.669 117.388C206.788 116.953 206.774 116.514 206.627 116.073C206.491 115.632 206.225 115.213 205.829 114.817L204.573 113.562L200.89 117.244ZM204.534 123.145L213.121 119.853L214.479 121.21L211.195 129.806L209.753 128.363L212.824 120.947L213.367 121.49L205.943 124.553L204.534 123.145ZM207.131 123.196L208.539 122.517L211.594 125.572L210.924 126.989L207.131 123.196ZM211.811 130.422L217.751 124.482L220.449 127.181C221.094 127.826 221.538 128.519 221.782 129.26C222.03 129.995 222.073 130.722 221.909 131.44C221.745 132.159 221.36 132.821 220.755 133.426C220.155 134.025 219.493 134.41 218.769 134.58C218.051 134.744 217.321 134.704 216.58 134.461C215.845 134.212 215.154 133.765 214.51 133.12L211.811 130.422ZM214.314 130.668L215.57 131.924C215.966 132.32 216.382 132.589 216.818 132.73C217.265 132.871 217.706 132.883 218.141 132.764C218.583 132.651 218.99 132.408 219.363 132.034C219.742 131.655 219.985 131.248 220.093 130.812C220.212 130.377 220.198 129.938 220.051 129.497C219.915 129.056 219.649 128.637 219.253 128.241L217.997 126.986L214.314 130.668ZM223.633 135.15L226.492 138.009L225.423 139.079L222.564 136.219L223.633 135.15ZM221.291 137.695L224.524 140.928L223.421 142.031L218.822 137.432L224.761 131.493L229.25 135.981L228.147 137.084L225.024 133.962L221.291 137.695ZM226.364 145.179C225.889 144.703 225.496 144.186 225.185 143.626C224.879 143.06 224.695 142.542 224.633 142.073L226.135 141.504C226.209 141.94 226.358 142.39 226.585 142.854C226.822 143.317 227.119 143.728 227.476 144.084C227.747 144.355 227.99 144.548 228.205 144.661C228.432 144.774 228.633 144.822 228.808 144.805C228.983 144.788 229.133 144.718 229.258 144.593C229.416 144.435 229.478 144.248 229.444 144.033C229.416 143.812 229.328 143.572 229.181 143.312C229.04 143.046 228.87 142.763 228.672 142.463C228.485 142.163 228.307 141.85 228.138 141.521C227.974 141.199 227.852 140.874 227.773 140.546C227.694 140.218 227.691 139.887 227.764 139.553C227.843 139.225 228.041 138.902 228.358 138.586C228.698 138.246 229.096 138.028 229.555 137.932C230.024 137.836 230.525 137.89 231.057 138.093C231.6 138.297 232.151 138.679 232.711 139.239C233.084 139.612 233.407 140.025 233.678 140.478C233.956 140.925 234.145 141.374 234.247 141.827L232.779 142.446C232.66 142.011 232.499 141.618 232.295 141.267C232.097 140.91 231.865 140.599 231.6 140.333C231.334 140.068 231.085 139.881 230.853 139.773C230.621 139.666 230.417 139.626 230.242 139.655C230.072 139.677 229.922 139.754 229.792 139.884C229.639 140.036 229.577 140.223 229.606 140.444C229.639 140.659 229.73 140.896 229.877 141.157C230.024 141.417 230.191 141.697 230.378 141.997C230.57 142.302 230.751 142.613 230.921 142.93C231.096 143.252 231.223 143.578 231.303 143.906C231.382 144.234 231.382 144.562 231.303 144.89C231.229 145.224 231.037 145.546 230.726 145.857C230.392 146.191 229.993 146.403 229.529 146.494C229.065 146.584 228.562 146.528 228.019 146.324C227.481 146.126 226.93 145.744 226.364 145.179ZM236.844 152.859C236.652 152.666 236.519 152.443 236.446 152.188C236.383 151.934 236.383 151.679 236.446 151.425C236.513 151.164 236.652 150.93 236.861 150.72C237.071 150.511 237.303 150.375 237.557 150.313C237.812 150.251 238.063 150.254 238.312 150.322C238.573 150.389 238.799 150.52 238.991 150.712C239.183 150.904 239.311 151.128 239.373 151.382C239.446 151.637 239.452 151.891 239.39 152.146C239.328 152.4 239.192 152.632 238.983 152.842C238.773 153.051 238.539 153.19 238.278 153.257C238.024 153.32 237.766 153.317 237.506 153.249C237.257 153.181 237.037 153.051 236.844 152.859ZM242.713 161.527C241.87 160.684 241.446 159.791 241.44 158.846C241.434 157.901 241.867 156.993 242.738 156.122L246.064 152.796L247.439 154.17L244.164 157.446C243.598 158.011 243.307 158.535 243.29 159.016C243.273 159.496 243.474 159.946 243.892 160.365C244.311 160.783 244.761 160.984 245.241 160.967C245.722 160.95 246.245 160.659 246.811 160.093L250.086 156.818L251.444 158.176L248.118 161.502C247.247 162.373 246.339 162.806 245.394 162.8C244.449 162.794 243.556 162.37 242.713 161.527ZM246.863 165.474L252.802 159.534L253.94 160.671L253.167 168.452L252.616 167.9L256.892 163.624L258.25 164.981L252.31 170.921L251.182 169.793L251.945 162.003L252.497 162.555L248.22 166.831L246.863 165.474ZM253.716 172.326L259.655 166.387L261.03 167.761L255.09 173.701L253.716 172.326ZM256.5 175.111L262.44 169.171L265.138 171.869C265.783 172.514 266.227 173.207 266.47 173.948C266.719 174.684 266.761 175.41 266.597 176.129C266.433 176.847 266.049 177.509 265.443 178.114C264.844 178.714 264.182 179.099 263.458 179.268C262.739 179.433 262.01 179.393 261.269 179.15C260.533 178.901 259.843 178.454 259.198 177.809L256.5 175.111ZM259.003 175.357L260.259 176.613C260.655 177.009 261.071 177.277 261.506 177.419C261.953 177.56 262.394 177.571 262.83 177.453C263.271 177.339 263.678 177.096 264.052 176.723C264.431 176.344 264.674 175.937 264.782 175.501C264.9 175.065 264.886 174.627 264.739 174.186C264.603 173.745 264.337 173.326 263.941 172.93L262.686 171.674L259.003 175.357ZM262.647 181.257L271.234 177.965L272.591 179.323L269.308 187.918L267.865 186.476L270.937 179.06L271.48 179.603L264.055 182.666L262.647 181.257ZM265.243 181.308L266.652 180.63L269.706 183.684L269.036 185.101L265.243 181.308ZM269.924 188.535L275.864 182.595L278.562 185.293C279.207 185.938 279.651 186.631 279.894 187.372C280.143 188.108 280.185 188.834 280.021 189.553C279.857 190.271 279.473 190.933 278.867 191.538C278.268 192.138 277.606 192.523 276.882 192.692C276.163 192.856 275.434 192.817 274.693 192.574C273.957 192.325 273.267 191.878 272.622 191.233L269.924 188.535ZM272.427 188.781L273.683 190.037C274.079 190.433 274.495 190.701 274.93 190.843C275.377 190.984 275.818 190.995 276.254 190.877C276.695 190.763 277.102 190.52 277.476 190.147C277.855 189.768 278.098 189.361 278.206 188.925C278.324 188.489 278.31 188.051 278.163 187.61C278.027 187.169 277.761 186.75 277.365 186.354L276.11 185.098L272.427 188.781ZM281.745 193.262L284.605 196.122L283.536 197.191L280.676 194.332L281.745 193.262ZM279.403 195.808L282.636 199.041L281.533 200.144L276.934 195.545L282.874 189.605L287.363 194.094L286.259 195.197L283.137 192.074L279.403 195.808ZM284.477 203.291C284.002 202.816 283.608 202.298 283.297 201.738C282.992 201.173 282.808 200.655 282.746 200.186L284.248 199.617C284.321 200.053 284.471 200.502 284.697 200.966C284.935 201.43 285.232 201.84 285.588 202.197C285.86 202.468 286.103 202.66 286.318 202.774C286.544 202.887 286.745 202.935 286.92 202.918C287.096 202.901 287.246 202.83 287.37 202.706C287.529 202.547 287.591 202.361 287.557 202.146C287.529 201.925 287.441 201.685 287.294 201.424C287.152 201.159 286.983 200.876 286.785 200.576C286.598 200.276 286.42 199.962 286.25 199.634C286.086 199.312 285.964 198.986 285.885 198.658C285.806 198.33 285.803 197.999 285.877 197.665C285.956 197.337 286.154 197.015 286.471 196.698C286.81 196.359 287.209 196.141 287.667 196.045C288.137 195.949 288.637 196.002 289.169 196.206C289.712 196.41 290.264 196.791 290.824 197.351C291.197 197.725 291.52 198.138 291.791 198.59C292.068 199.037 292.258 199.487 292.36 199.939L290.892 200.559C290.773 200.123 290.612 199.73 290.408 199.379C290.21 199.023 289.978 198.712 289.712 198.446C289.446 198.18 289.197 197.994 288.965 197.886C288.734 197.779 288.53 197.739 288.354 197.767C288.185 197.79 288.035 197.866 287.905 197.996C287.752 198.149 287.69 198.336 287.718 198.556C287.752 198.771 287.843 199.009 287.99 199.269C288.137 199.529 288.304 199.809 288.49 200.109C288.683 200.415 288.864 200.726 289.033 201.043C289.209 201.365 289.336 201.69 289.415 202.018C289.494 202.346 289.494 202.675 289.415 203.003C289.342 203.336 289.149 203.659 288.838 203.97C288.504 204.304 288.106 204.516 287.642 204.606C287.178 204.697 286.674 204.64 286.131 204.437C285.594 204.239 285.042 203.857 284.477 203.291ZM294.957 210.971C294.765 210.779 294.632 210.555 294.558 210.301C294.496 210.046 294.496 209.792 294.558 209.537C294.626 209.277 294.765 209.042 294.974 208.833C295.183 208.624 295.415 208.488 295.67 208.426C295.924 208.363 296.176 208.366 296.425 208.434C296.685 208.502 296.911 208.632 297.104 208.824C297.296 209.017 297.423 209.24 297.486 209.495C297.559 209.749 297.565 210.004 297.502 210.258C297.44 210.513 297.305 210.745 297.095 210.954C296.886 211.164 296.651 211.302 296.391 211.37C296.136 211.432 295.879 211.429 295.619 211.362C295.37 211.294 295.149 211.164 294.957 210.971ZM303.228 222.043C302.386 221.2 301.961 220.306 301.956 219.361C301.95 218.417 302.383 217.509 303.254 216.638L306.58 213.311L307.955 214.686L304.679 217.961C304.114 218.527 303.822 219.05 303.805 219.531C303.788 220.012 303.989 220.462 304.408 220.88C304.826 221.299 305.276 221.5 305.757 221.483C306.238 221.466 306.761 221.175 307.327 220.609L310.602 217.333L311.96 218.691L308.634 222.017C307.762 222.889 306.854 223.321 305.91 223.316C304.965 223.31 304.071 222.886 303.228 222.043ZM307.378 225.989L313.318 220.05L314.455 221.187L313.683 228.968L313.131 228.416L317.408 224.139L318.766 225.497L312.826 231.437L311.697 230.308L312.461 222.519L313.013 223.07L308.736 227.347L307.378 225.989ZM314.231 232.842L320.171 226.902L321.546 228.277L315.606 234.217L314.231 232.842ZM317.016 235.626L322.955 229.687L325.654 232.385C326.298 233.03 326.742 233.723 326.986 234.464C327.235 235.199 327.277 235.926 327.113 236.645C326.949 237.363 326.564 238.025 325.959 238.63C325.359 239.23 324.698 239.614 323.973 239.784C323.255 239.948 322.525 239.909 321.784 239.665C321.049 239.416 320.359 238.97 319.714 238.325L317.016 235.626ZM319.519 235.872L320.775 237.128C321.17 237.524 321.586 237.793 322.022 237.934C322.469 238.076 322.91 238.087 323.346 237.968C323.787 237.855 324.194 237.612 324.567 237.239C324.946 236.859 325.19 236.452 325.297 236.017C325.416 235.581 325.402 235.143 325.255 234.701C325.119 234.26 324.853 233.842 324.457 233.446L323.201 232.19L319.519 235.872ZM323.162 241.773L331.749 238.481L333.107 239.838L329.823 248.434L328.381 246.992L331.452 239.575L331.995 240.118L324.571 243.182L323.162 241.773ZM325.759 241.824L327.167 241.145L330.222 244.2L329.552 245.617L325.759 241.824ZM330.44 249.05L336.379 243.111L339.078 245.809C339.722 246.454 340.166 247.147 340.41 247.888C340.659 248.623 340.701 249.35 340.537 250.069C340.373 250.787 339.988 251.449 339.383 252.054C338.783 252.654 338.122 253.038 337.397 253.208C336.679 253.372 335.949 253.333 335.208 253.089C334.473 252.84 333.783 252.393 333.138 251.749L330.44 249.05ZM332.943 249.296L334.198 250.552C334.594 250.948 335.01 251.217 335.446 251.358C335.893 251.5 336.334 251.511 336.77 251.392C337.211 251.279 337.618 251.036 337.991 250.662C338.37 250.283 338.614 249.876 338.721 249.441C338.84 249.005 338.826 248.567 338.679 248.125C338.543 247.684 338.277 247.266 337.881 246.87L336.625 245.614L332.943 249.296ZM342.261 253.778L345.121 256.638L344.051 257.707L341.192 254.847L342.261 253.778ZM339.919 256.324L343.152 259.557L342.049 260.66L337.45 256.061L343.39 250.121L347.878 254.61L346.775 255.713L343.653 252.59L339.919 256.324ZM344.992 263.807C344.517 263.332 344.124 262.814 343.813 262.254C343.507 261.688 343.324 261.171 343.261 260.701L344.763 260.133C344.837 260.568 344.987 261.018 345.213 261.482C345.451 261.946 345.748 262.356 346.104 262.712C346.375 262.984 346.619 263.176 346.834 263.289C347.06 263.402 347.261 263.45 347.436 263.433C347.611 263.416 347.761 263.346 347.886 263.221C348.044 263.063 348.106 262.876 348.073 262.661C348.044 262.441 347.957 262.2 347.809 261.94C347.668 261.674 347.498 261.391 347.3 261.091C347.114 260.792 346.935 260.478 346.766 260.15C346.602 259.827 346.48 259.502 346.401 259.174C346.322 258.846 346.319 258.515 346.392 258.181C346.472 257.853 346.67 257.531 346.986 257.214C347.326 256.874 347.725 256.657 348.183 256.56C348.652 256.464 349.153 256.518 349.685 256.722C350.228 256.925 350.779 257.307 351.339 257.867C351.713 258.24 352.035 258.653 352.307 259.106C352.584 259.553 352.773 260.003 352.875 260.455L351.407 261.075C351.288 260.639 351.127 260.246 350.924 259.895C350.726 259.539 350.494 259.228 350.228 258.962C349.962 258.696 349.713 258.509 349.481 258.402C349.249 258.294 349.045 258.255 348.87 258.283C348.7 258.305 348.551 258.382 348.42 258.512C348.268 258.665 348.205 258.851 348.234 259.072C348.268 259.287 348.358 259.525 348.505 259.785C348.652 260.045 348.819 260.325 349.006 260.625C349.198 260.93 349.379 261.241 349.549 261.558C349.724 261.881 349.852 262.206 349.931 262.534C350.01 262.862 350.01 263.19 349.931 263.518C349.857 263.852 349.665 264.174 349.354 264.486C349.02 264.819 348.621 265.031 348.157 265.122C347.694 265.213 347.19 265.156 346.647 264.952C346.11 264.754 345.558 264.372 344.992 263.807Z" fill="#FAFAFA"/>
</g>
<defs>
<filter id="filter0_d_17362_72" x="0.734741" y="-45.061" width="390.841" height="227.605" filterUnits="userSpaceOnUse" color-interpolation-filters="sRGB">
<feFlood flood-opacity="0" result="BackgroundImageFix"/>
<feColorMatrix in="SourceAlpha" type="matrix" values="0 0 0 0 0 0 0 0 0 0 0 0 0 0 0 0 0 0 127 0" result="hardAlpha"/>
<feOffset dy="2"/>
<feGaussianBlur stdDeviation="4"/>
<feColorMatrix type="matrix" values="0 0 0 0 0.129412 0 0 0 0 0.145098 0 0 0 0 0.160784 0 0 0 0.12 0"/>
<feBlend mode="normal" in2="BackgroundImageFix" result="effect1_dropShadow_17362_72"/>
<feBlend mode="normal" in="SourceGraphic" in2="effect1_dropShadow_17362_72" result="shape"/>
</filter>
<filter id="filter1_d_17362_72" x="19.2712" y="-66.4819" width="399.482" height="399.482" filterUnits="userSpaceOnUse" color-interpolation-filters="sRGB">
<feFlood flood-opacity="0" result="BackgroundImageFix"/>
<feColorMatrix in="SourceAlpha" type="matrix" values="0 0 0 0 0 0 0 0 0 0 0 0 0 0 0 0 0 0 127 0" result="hardAlpha"/>
<feOffset dy="2"/>
<feGaussianBlur stdDeviation="4"/>
<feColorMatrix type="matrix" values="0 0 0 0 0.129412 0 0 0 0 0.145098 0 0 0 0 0.160784 0 0 0 0.12 0"/>
<feBlend mode="normal" in2="BackgroundImageFix" result="effect1_dropShadow_17362_72"/>
<feBlend mode="normal" in="SourceGraphic" in2="effect1_dropShadow_17362_72" result="shape"/>
</filter>
</defs>
</svg>
