<svg width="131" height="52" viewBox="0 0 131 52" fill="none" xmlns="http://www.w3.org/2000/svg">
<path d="M46.6082 23.4147C48.579 24.5748 48.579 27.4252 46.6082 28.5853L17.2719 45.8548C15.272 47.032 12.75 45.5901 12.75 43.2694L12.75 8.73056C12.75 6.40988 15.272 4.96797 17.2719 6.14525L46.6082 23.4147Z" fill="#F94D12"/>
<path d="M83.6082 23.4147C85.579 24.5748 85.579 27.4252 83.6082 28.5853L54.2719 45.8548C52.272 47.032 49.75 45.5901 49.75 43.2694L49.75 8.73056C49.75 6.40988 52.272 4.96797 54.2719 6.14525L83.6082 23.4147Z" fill="#F94D12"/>
<path d="M120.608 23.4147C122.579 24.5748 122.579 27.4252 120.608 28.5853L91.2719 45.8548C89.272 47.032 86.75 45.5901 86.75 43.2694L86.75 8.73056C86.75 6.40988 89.272 4.96797 91.2719 6.14525L120.608 23.4147Z" fill="#F94D12"/>
<path d="M157.608 23.4147C159.579 24.5748 159.579 27.4252 157.608 28.5853L128.272 45.8548C126.272 47.032 123.75 45.5901 123.75 43.2694L123.75 8.73056C123.75 6.40988 126.272 4.96797 128.272 6.14525L157.608 23.4147Z" fill="#F94D12"/>
</svg>
