<svg class="cro-triangule-image-header-left" width="162" height="52" fill="none" xmlns="http://www.w3.org/2000/svg"><path d="M46.6082 23.4147c1.9708 1.1601 1.9708 4.0105 0 5.1706L17.2719 45.8548c-1.9999 1.1772-4.5219-.2647-4.5219-2.5854V8.73056c0-2.32068 2.522-3.76259 4.5219-2.58531L46.6082 23.4147ZM83.6082 23.4147c1.9708 1.1601 1.9708 4.0105 0 5.1706L54.2719 45.8548c-1.9999 1.1772-4.5219-.2647-4.5219-2.5854V8.73056c0-2.32068 2.522-3.76259 4.5219-2.58531L83.6082 23.4147ZM120.608 23.4147c1.971 1.1601 1.971 4.0105 0 5.1706L91.2719 45.8548c-1.9999 1.1772-4.5219-.2647-4.5219-2.5854V8.73056c0-2.32068 2.522-3.76259 4.5219-2.58531L120.608 23.4147ZM157.608 23.4147c1.971 1.1601 1.971 4.0105 0 5.1706l-29.336 17.2695c-2 1.1772-4.522-.2647-4.522-2.5854V8.73056c0-2.32068 2.522-3.76259 4.522-2.58531l29.336 17.26945Z" fill="var(--cro-primary)"/></svg>