<svg width="24" height="24" viewBox="0 0 24 24" fill="none" xmlns="http://www.w3.org/2000/svg">
<rect x="0.0839844" y="23.5" width="23" height="23" rx="11.5" transform="rotate(-90 0.0839844 23.5)" fill="#5DA83C"/>
<path d="M11.8231 10.8864C11.8232 10.9289 11.8145 10.971 11.7975 11.0104C11.7805 11.0497 11.7556 11.0854 11.7241 11.1155L7.34222 15.3072C7.20342 15.4401 7.19157 15.6502 7.31535 15.7856C7.34771 15.8214 7.38743 15.8504 7.43202 15.8708C7.4766 15.8912 7.52511 15.9026 7.57451 15.9042C7.6239 15.9059 7.67313 15.8978 7.71911 15.8805C7.7651 15.8631 7.80685 15.8369 7.84177 15.8035L9.05372 14.6441C9.1179 14.5867 9.20288 14.5554 9.29071 14.5569C9.37854 14.5583 9.46235 14.5924 9.52442 14.6518C9.58649 14.7113 9.62198 14.7915 9.62337 14.8755C9.62477 14.9595 9.59197 15.0408 9.5319 15.1021L8.31995 16.2615C8.21948 16.3577 8.09941 16.4331 7.96721 16.483C7.835 16.5329 7.69347 16.5563 7.55142 16.5517C7.40937 16.5471 7.26982 16.5146 7.14146 16.4562C7.01309 16.3978 6.89864 16.3148 6.80522 16.2123C6.44743 15.8211 6.47282 15.2223 6.86277 14.8493L11.2457 10.6574C11.2931 10.6122 11.3534 10.5814 11.419 10.5689C11.4847 10.5564 11.5527 10.5628 11.6146 10.5873C11.6764 10.6118 11.7293 10.6533 11.7665 10.7065C11.8037 10.7598 11.8235 10.8223 11.8236 10.8864L11.8231 10.8864Z" fill="#FCFCFC"/>
<path d="M10.6257 15.7791C10.6254 15.8709 10.5885 15.9587 10.523 16.0236L9.82139 16.7198C9.72179 16.8185 9.60355 16.8969 9.47342 16.9503C9.34329 17.0037 9.20381 17.0312 9.06295 17.0312C8.92209 17.0313 8.7826 17.0038 8.65246 16.9504C8.52232 16.8969 8.40407 16.8186 8.30446 16.7199C8.20485 16.6212 8.12583 16.504 8.07191 16.3751C8.018 16.2461 7.99024 16.1078 7.99023 15.9682C7.99022 15.8286 8.01796 15.6904 8.07185 15.5614C8.12575 15.4324 8.20475 15.3152 8.30435 15.2165C8.36999 15.1513 8.45907 15.1147 8.55199 15.1146C8.64491 15.1145 8.73405 15.151 8.79982 15.2161C8.86558 15.2811 8.90257 15.3694 8.90265 15.4615C8.90273 15.5536 8.8659 15.642 8.80025 15.7071C8.76432 15.741 8.73559 15.7817 8.71575 15.8267C8.6959 15.8717 8.68534 15.9203 8.68469 15.9694C8.68403 16.0186 8.6933 16.0673 8.71194 16.1129C8.73058 16.1584 8.75822 16.1998 8.79324 16.2346C8.82825 16.2694 8.86994 16.2969 8.91583 16.3155C8.96173 16.3342 9.01092 16.3435 9.06051 16.343C9.1101 16.3425 9.15909 16.3321 9.20459 16.3126C9.25009 16.2931 9.2912 16.2647 9.32548 16.2292L10.0271 15.5338C10.0761 15.4852 10.1385 15.4522 10.2064 15.4387C10.2743 15.4253 10.3448 15.4322 10.4088 15.4584C10.4728 15.4847 10.5275 15.5292 10.566 15.5863C10.6045 15.6434 10.625 15.7105 10.625 15.7791L10.6257 15.7791Z" fill="#FCFCFC"/>
<path d="M12.0632 16.2827C12.0632 16.3747 12.026 16.463 11.9597 16.528L11.2765 17.1988C11.0735 17.3982 10.798 17.5102 10.5108 17.5103C10.2236 17.5103 9.9481 17.3983 9.74499 17.1989C9.54187 16.9995 9.42776 16.7291 9.42773 16.4471C9.42771 16.1651 9.54179 15.8947 9.74488 15.6953C9.81118 15.6302 9.90111 15.5936 9.99489 15.5936C10.0887 15.5936 10.1786 15.6302 10.2449 15.6953C10.3112 15.7604 10.3485 15.8486 10.3485 15.9407C10.3485 16.0328 10.3112 16.1211 10.2449 16.1862C10.21 16.2204 10.1823 16.2611 10.1634 16.3059C10.1445 16.3507 10.1348 16.3987 10.1348 16.4471C10.1348 16.4956 10.1445 16.5436 10.1634 16.5884C10.1823 16.6331 10.21 16.6738 10.2449 16.7081C10.2798 16.7424 10.3212 16.7696 10.3669 16.7881C10.4125 16.8066 10.4613 16.8162 10.5107 16.8162C10.5601 16.8162 10.609 16.8066 10.6546 16.7881C10.7002 16.7696 10.7416 16.7424 10.7765 16.7081L11.4597 16.0374C11.5092 15.9888 11.5722 15.9558 11.6407 15.9424C11.7093 15.9291 11.7804 15.9359 11.845 15.9622C11.9096 15.9885 11.9648 16.033 12.0036 16.0901C12.0424 16.1472 12.0632 16.2143 12.0632 16.2829L12.0632 16.2827Z" fill="#FCFCFC"/>
<path d="M13.3601 16.9686C13.36 17.0117 13.3513 17.0545 13.3344 17.0943C13.3175 17.1342 13.2927 17.1703 13.2616 17.2008L12.7598 17.6939C12.6642 17.7877 12.5507 17.8621 12.4258 17.9129C12.3009 17.9636 12.1671 17.9897 12.0319 17.9897C11.8967 17.9897 11.7628 17.9636 11.6379 17.9129C11.513 17.8621 11.3995 17.7877 11.3039 17.6939C11.2083 17.6001 11.1325 17.4888 11.0808 17.3662C11.029 17.2437 11.0024 17.1123 11.0024 16.9797C11.0024 16.8471 11.029 16.7157 11.0808 16.5932C11.1325 16.4706 11.2083 16.3593 11.3039 16.2655C11.3351 16.2349 11.3722 16.2106 11.413 16.194C11.4537 16.1774 11.4974 16.1689 11.5416 16.1689C11.5857 16.1689 11.6294 16.1774 11.6702 16.194C11.711 16.2106 11.748 16.2349 11.7792 16.2655C11.8104 16.2961 11.8352 16.3325 11.8521 16.3725C11.869 16.4125 11.8777 16.4553 11.8777 16.4987C11.8777 16.542 11.869 16.5848 11.8521 16.6248C11.8352 16.6648 11.8104 16.7012 11.7792 16.7318C11.7122 16.7976 11.6746 16.8869 11.6747 16.9799C11.6747 17.073 11.7124 17.1622 11.7795 17.2279C11.8466 17.2936 11.9376 17.3306 12.0324 17.3305C12.1272 17.3304 12.2182 17.2934 12.2852 17.2276L12.7871 16.7353C12.8341 16.6892 12.894 16.6578 12.9592 16.6451C13.0244 16.6324 13.0919 16.639 13.1533 16.664C13.2147 16.6889 13.2672 16.7312 13.3041 16.7854C13.341 16.8396 13.3607 16.9034 13.3607 16.9686L13.3601 16.9686ZM7.33746 15.1289C7.33759 15.2024 7.31267 15.2738 7.26668 15.3318C7.22068 15.3899 7.15624 15.4311 7.08359 15.4491C7.01094 15.4671 6.93425 15.4607 6.86571 15.431C6.79717 15.4014 6.7407 15.35 6.70529 15.2853C6.58537 15.0681 6.14579 14.4544 5.70895 14.4761C5.61982 14.4805 5.53256 14.45 5.46635 14.3913C5.40014 14.3326 5.36041 14.2505 5.3559 14.163C5.35139 14.0756 5.38246 13.99 5.44229 13.925C5.50212 13.8601 5.5858 13.8211 5.67492 13.8167C6.08594 13.7961 6.50157 13.9982 6.87667 14.4006C7.03804 14.5753 7.17894 14.7672 7.29671 14.9727C7.3232 15.0206 7.3372 15.0743 7.33746 15.1289ZM13.9805 10.9967C13.9809 11.0992 13.9564 11.2003 13.9088 11.2916C13.6837 11.7243 13.0622 11.7449 12.8451 11.7505C12.6697 11.7626 11.5591 11.776 10.4376 10.3245C10.4088 10.2902 10.3873 10.2506 10.3745 10.2079C10.3617 10.1653 10.3578 10.1206 10.3631 10.0764C10.3683 10.0323 10.3827 9.98963 10.4052 9.95104C10.4277 9.91246 10.4579 9.87874 10.494 9.85191C10.5301 9.82508 10.5714 9.80569 10.6153 9.79491C10.6593 9.78413 10.705 9.78218 10.7498 9.78917C10.7945 9.79617 10.8373 9.81198 10.8757 9.83564C10.914 9.85929 10.9471 9.89032 10.9729 9.92684C11.9004 11.1267 12.7247 11.0985 12.7907 11.094C12.8002 11.0927 12.8097 11.0921 12.8192 11.0921C13.1824 11.083 13.2886 11.0097 13.3082 10.993C13.3036 10.9619 13.2933 10.9319 13.2779 10.9044L12.7354 10.245C12.5827 10.0574 12.4484 9.85597 12.3343 9.6435C11.9653 8.9635 11.4018 8.78876 11.1769 8.74487C11.0654 8.72303 10.9627 8.69954 10.8618 8.67296C10.0984 8.46999 9.29529 8.66822 8.75595 8.87016C8.43268 8.99374 8.13601 9.17591 7.88142 9.40715C7.11694 10.0894 6.0139 10.149 5.69403 10.1525C5.64982 10.1527 5.60598 10.1445 5.56504 10.1281C5.52409 10.1117 5.48685 10.0875 5.45543 10.057C5.42402 10.0265 5.39906 9.99016 5.38198 9.95014C5.3649 9.91012 5.35604 9.86719 5.3559 9.82381L5.3559 9.82134C5.3559 9.73432 5.39095 9.65083 5.45343 9.58907C5.5159 9.52731 5.60073 9.49229 5.68941 9.49164C5.87423 9.4902 6.82647 9.45619 7.42945 8.91796C7.74619 8.6313 8.11502 8.40559 8.51673 8.25259C9.14932 8.01583 10.1001 7.78565 11.037 8.03499C11.1227 8.05766 11.2111 8.07785 11.3075 8.09681C11.6261 8.15863 12.4223 8.40425 12.9266 9.33194C13.0205 9.50772 13.1313 9.67429 13.2576 9.82937L13.8129 10.5038C13.8183 10.5106 13.8236 10.5174 13.8284 10.5244C13.8488 10.5539 13.9805 10.7511 13.9805 10.9967Z" fill="#FCFCFC"/>
<path d="M14.512 8.49316C14.5119 8.54701 14.4984 8.60001 14.4727 8.64743C14.4498 8.68942 13.9008 9.67826 12.663 9.79504C12.6199 9.79905 12.5765 9.79463 12.5351 9.78203C12.4938 9.76942 12.4554 9.74888 12.4221 9.72157C12.3548 9.66642 12.3124 9.58706 12.3042 9.50095C12.296 9.41485 12.3227 9.32905 12.3784 9.26243C12.4341 9.19582 12.5143 9.15384 12.6012 9.14573C13.4802 9.06278 13.8775 8.36721 13.8938 8.33766C13.9287 8.27384 13.9841 8.22338 14.0512 8.19425C14.1184 8.16512 14.1934 8.159 14.2644 8.17685C14.3355 8.19469 14.3985 8.23549 14.4435 8.29279C14.4885 8.35008 14.5129 8.42059 14.5128 8.49316L14.512 8.49316ZM18.2923 12.2364C18.2923 12.3228 18.2577 12.4057 18.196 12.4669L17.0757 13.5758C17.0454 13.6073 17.0091 13.6325 16.9688 13.65C16.9285 13.6674 16.8851 13.6767 16.8411 13.6772C16.7972 13.6778 16.7536 13.6696 16.7128 13.6532C16.6721 13.6368 16.6351 13.6125 16.604 13.5817C16.5729 13.551 16.5484 13.5143 16.5318 13.474C16.5153 13.4337 16.507 13.3905 16.5076 13.347C16.5081 13.3035 16.5175 13.2605 16.5351 13.2206C16.5527 13.1807 16.5782 13.1447 16.6101 13.1148L17.7301 12.0057C17.7762 11.9601 17.8349 11.9291 17.8988 11.9165C17.9627 11.9039 18.0289 11.9104 18.0891 11.9351C18.1492 11.9598 18.2007 12.0016 18.2368 12.0552C18.273 12.1088 18.2923 12.1719 18.2923 12.2364Z" fill="#FCFCFC"/>
<path d="M17.5736 14.1522C17.5737 14.3425 17.5173 14.5287 17.4116 14.687C17.3058 14.8453 17.1554 14.9687 16.9795 15.0415C16.8035 15.1144 16.6099 15.1334 16.4231 15.0962C16.2364 15.059 16.0648 14.9673 15.9303 14.8326L15.4598 14.3624C15.2792 14.1818 15.1777 13.9369 15.1777 13.6816C15.1778 13.4262 15.2793 13.1814 15.4599 13.0008C15.6405 12.8203 15.8855 12.7189 16.141 12.7189C16.3965 12.7189 16.6414 12.8204 16.8221 13.0009L17.2925 13.4712C17.3819 13.5606 17.4527 13.6668 17.5009 13.7837C17.5492 13.9005 17.5738 14.0258 17.5736 14.1522ZM15.8329 13.682C15.8327 13.7225 15.8406 13.7628 15.8561 13.8003C15.8716 13.8378 15.8943 13.8719 15.9231 13.9005L16.3935 14.3707C16.4518 14.4262 16.5295 14.4567 16.61 14.4558C16.6905 14.4548 16.7675 14.4224 16.8244 14.3655C16.8813 14.3086 16.9137 14.2317 16.9147 14.1512C16.9157 14.0708 16.8852 13.9931 16.8296 13.9349L16.3592 13.4646C16.3161 13.4215 16.2611 13.3921 16.2013 13.3802C16.1415 13.3683 16.0795 13.3744 16.0232 13.3978C15.9668 13.4211 15.9187 13.4606 15.8848 13.5113C15.8509 13.562 15.8329 13.6216 15.8329 13.6826L15.8329 13.682Z" fill="#FCFCFC"/>
<path d="M16.8548 15.0786C16.855 15.2752 16.7968 15.4674 16.6877 15.6309C16.5785 15.7944 16.4233 15.9219 16.2416 15.9971C16.06 16.0723 15.8601 16.092 15.6672 16.0536C15.4744 16.0152 15.2973 15.9205 15.1583 15.7814L14.0356 14.659C13.9424 14.5669 13.8683 14.4573 13.8176 14.3365C13.7669 14.2156 13.7406 14.086 13.7402 13.955C13.7398 13.824 13.7654 13.6942 13.8153 13.5731C13.8653 13.452 13.9387 13.3419 14.0314 13.2493C14.1241 13.1566 14.2342 13.0832 14.3553 13.0333C14.4765 12.9833 14.6063 12.9578 14.7373 12.9582C14.8684 12.9586 14.9981 12.9849 15.1189 13.0355C15.2398 13.0862 15.3494 13.1603 15.4415 13.2535L16.5643 14.3759C16.6566 14.4681 16.7298 14.5777 16.7797 14.6983C16.8295 14.8189 16.8551 14.9481 16.8548 15.0786ZM14.4201 13.9562C14.4201 13.998 14.4283 14.0394 14.4443 14.0781C14.4603 14.1167 14.4838 14.1518 14.5135 14.1812L15.6362 15.3037C15.6655 15.3344 15.7006 15.359 15.7396 15.376C15.7785 15.3929 15.8204 15.4019 15.8629 15.4025C15.9054 15.403 15.9475 15.395 15.9869 15.379C16.0262 15.363 16.0619 15.3393 16.092 15.3092C16.122 15.2792 16.1457 15.2435 16.1617 15.2042C16.1777 15.1648 16.1857 15.1227 16.1852 15.0803C16.1847 15.0378 16.1757 14.9959 16.1587 14.957C16.1417 14.918 16.1172 14.8829 16.0864 14.8536L14.9637 13.7312C14.9191 13.6867 14.8624 13.6564 14.8006 13.6441C14.7389 13.6318 14.6749 13.6381 14.6167 13.6622C14.5585 13.6863 14.5088 13.7271 14.4738 13.7794C14.4388 13.8318 14.4202 13.8933 14.4201 13.9562Z" fill="#FCFCFC"/>
<path d="M15.8965 16.0392C15.8964 16.2354 15.8427 16.4272 15.7421 16.5903C15.6414 16.7535 15.4984 16.8806 15.3311 16.9557C15.1638 17.0308 14.9797 17.0505 14.8021 17.0122C14.6244 16.974 14.4612 16.8795 14.3331 16.7408L13.2986 15.62C13.2116 15.5283 13.1424 15.4189 13.0948 15.2979C13.0472 15.177 13.0223 15.0471 13.0215 14.9156C13.0207 14.7842 13.044 14.6539 13.09 14.5323C13.1361 14.4107 13.204 14.3002 13.2898 14.2072C13.3756 14.1143 13.4776 14.0408 13.5898 13.9909C13.7021 13.941 13.8224 13.9158 13.9437 13.9167C14.065 13.9176 14.185 13.9446 14.2966 13.9962C14.4082 14.0477 14.5092 14.1228 14.5938 14.217L15.6282 15.3376C15.7135 15.4295 15.7812 15.5389 15.8272 15.6593C15.8733 15.7797 15.8968 15.9089 15.8965 16.0392ZM13.653 14.9182C13.6529 14.9599 13.6605 15.0012 13.6752 15.0398C13.6899 15.0784 13.7115 15.1134 13.7388 15.1428L14.7732 16.2649C14.8002 16.2956 14.8326 16.3202 14.8684 16.3371C14.9043 16.354 14.9429 16.363 14.9821 16.3636C15.0212 16.3641 15.06 16.3561 15.0963 16.3401C15.1325 16.3241 15.1654 16.3005 15.1931 16.2705C15.2207 16.2405 15.2426 16.2048 15.2574 16.1656C15.2721 16.1263 15.2795 16.0843 15.279 16.0419C15.2785 15.9995 15.2702 15.9576 15.2546 15.9188C15.2389 15.8799 15.2163 15.8448 15.188 15.8156L14.1536 14.695C14.1126 14.6505 14.0603 14.6202 14.0034 14.608C13.9466 14.5957 13.8876 14.602 13.834 14.6261C13.7804 14.6501 13.7346 14.6908 13.7024 14.7431C13.6702 14.7954 13.653 14.8568 13.653 14.9197L13.653 14.9182Z" fill="#FCFCFC"/>
<path d="M14.8536 16.7142C14.8536 16.9191 14.7927 17.1193 14.6787 17.2896C14.5646 17.46 14.4026 17.5927 14.2129 17.6711C14.0233 17.7495 13.8147 17.7701 13.6134 17.7301C13.412 17.6902 13.2271 17.5916 13.082 17.4468L12.4807 16.8467C12.2937 16.651 12.1908 16.3901 12.194 16.1197C12.1971 15.8493 12.3061 15.5908 12.4976 15.3996C12.6892 15.2083 12.948 15.0993 13.2189 15.096C13.4899 15.0926 13.7514 15.1952 13.9476 15.3816L14.5488 15.9817C14.6456 16.0776 14.7224 16.1918 14.7747 16.3175C14.827 16.4433 14.8538 16.5781 14.8536 16.7142ZM12.8396 16.1142C12.8395 16.1632 12.8492 16.2118 12.8679 16.2571C12.8867 16.3024 12.9143 16.3435 12.9491 16.3782L13.5503 16.9783C13.6205 17.0483 13.7157 17.0877 13.815 17.0877C13.9142 17.0877 14.0094 17.0483 14.0796 16.9783C14.1498 16.9082 14.1893 16.8132 14.1893 16.7141C14.1893 16.6151 14.1498 16.52 14.0796 16.45L13.4784 15.8499C13.4262 15.7972 13.3595 15.7612 13.2867 15.7465C13.214 15.7318 13.1385 15.7391 13.0699 15.7675C13.0013 15.7958 12.9427 15.844 12.9017 15.9057C12.8607 15.9675 12.8391 16.0401 12.8396 16.1142ZM20.209 11.1109C20.2091 11.418 20.1179 11.7183 19.9469 11.9736C19.7759 12.229 19.5329 12.428 19.2485 12.5454C18.9642 12.6628 18.6513 12.6934 18.3495 12.6333C18.0477 12.5731 17.7706 12.425 17.5533 12.2076L13.9986 8.66086C13.7068 8.36969 13.5429 7.97479 13.5429 7.56301C13.5429 7.15124 13.7068 6.75633 13.9986 6.46516C14.2903 6.174 14.686 6.01042 15.0986 6.01042C15.5111 6.01042 15.9068 6.174 16.1986 6.46516L19.7528 10.0129C19.8979 10.1567 20.0129 10.3278 20.0912 10.5163C20.1695 10.7047 20.2095 10.9068 20.209 11.1109ZM14.2063 7.56291C14.206 7.67989 14.2289 7.79576 14.2738 7.90384C14.3186 8.01192 14.3845 8.11006 14.4675 8.19259L18.0225 11.7403C18.1898 11.9073 18.4167 12.0012 18.6533 12.0012C18.8899 12.0012 19.1168 11.9074 19.2842 11.7404C19.4515 11.5735 19.5455 11.347 19.5455 11.1108C19.5456 10.8747 19.4516 10.6482 19.2843 10.4812L15.7294 6.93323C15.6047 6.80837 15.4457 6.72328 15.2725 6.68874C15.0994 6.6542 14.9198 6.67177 14.7566 6.73923C14.5935 6.80668 14.4541 6.92098 14.3561 7.06763C14.2581 7.21427 14.206 7.38665 14.2063 7.56291ZM6.0702 9.06809L6.0702 14.0863C6.0702 14.498 5.90631 14.8929 5.61458 15.1841C5.32284 15.4753 4.92717 15.6388 4.51459 15.6388C4.10202 15.6388 3.70634 15.4753 3.41461 15.1841C3.12288 14.8929 2.95898 14.498 2.95898 14.0863L2.95898 9.06809C2.95898 8.65633 3.12288 8.26142 3.41461 7.97026C3.70634 7.6791 4.10202 7.51552 4.51459 7.51552C4.92717 7.51552 5.32284 7.6791 5.61458 7.97026C5.90631 8.26142 6.0702 8.65633 6.0702 9.06809ZM3.62245 14.0863C3.62245 14.3224 3.71644 14.5489 3.88375 14.7159C4.05106 14.8829 4.27798 14.9767 4.51459 14.9767C4.75121 14.9767 4.97813 14.8829 5.14544 14.7159C5.31275 14.5489 5.40674 14.3224 5.40674 14.0863L5.40674 9.06809C5.40674 8.83194 5.31275 8.60546 5.14544 8.43848C4.97813 8.2715 4.75121 8.17769 4.51459 8.17769C4.27798 8.17769 4.05106 8.2715 3.88375 8.43848C3.71644 8.60546 3.62245 8.83194 3.62245 9.06809L3.62245 14.0863Z" fill="#FCFCFC"/>
</svg>
