<svg xmlns="http://www.w3.org/2000/svg" width="24" height="24" viewBox="0 0 24 24" fill="none">
  <path d="M13.0575 11.9994L17.7796 7.28477C17.9207 7.14363 18 6.95221 18 6.7526C18 6.553 17.9207 6.36157 17.7796 6.22043C17.6384 6.07929 17.447 6 17.2474 6C17.0478 6 16.8564 6.07929 16.7152 6.22043L12.0006 10.9425L7.28605 6.22043C7.14491 6.07929 6.95349 6 6.75388 6C6.55428 6 6.36285 6.07929 6.22171 6.22043C6.08057 6.36157 6.00128 6.553 6.00128 6.7526C6.00128 6.95221 6.08057 7.14363 6.22171 7.28477L10.9438 11.9994L6.22171 16.7139C6.15146 16.7836 6.0957 16.8665 6.05764 16.9579C6.01959 17.0492 6 17.1472 6 17.2461C6 17.3451 6.01959 17.443 6.05764 17.5344C6.0957 17.6257 6.15146 17.7086 6.22171 17.7783C6.29139 17.8485 6.37429 17.9043 6.46563 17.9424C6.55697 17.9804 6.65494 18 6.75388 18C6.85283 18 6.9508 17.9804 7.04214 17.9424C7.13348 17.9043 7.21637 17.8485 7.28605 17.7783L12.0006 13.0562L16.7152 17.7783C16.7849 17.8485 16.8678 17.9043 16.9591 17.9424C17.0505 17.9804 17.1484 18 17.2474 18C17.3463 18 17.4443 17.9804 17.5357 17.9424C17.627 17.9043 17.7099 17.8485 17.7796 17.7783C17.8498 17.7086 17.9056 17.6257 17.9436 17.5344C17.9817 17.443 18.0013 17.3451 18.0013 17.2461C18.0013 17.1472 17.9817 17.0492 17.9436 16.9579C17.9056 16.8665 17.8498 16.7836 17.7796 16.7139L13.0575 11.9994Z" fill="#2B2B2F"/>
</svg>