<svg xmlns="http://www.w3.org/2000/svg" width="32" height="32" viewBox="0 0 32 32" fill="none">
  <path d="M8.74296 19.7592C7.37543 20.2692 6.04491 20.8791 4.76152 21.5843C4.41031 21.7923 4.11574 22.0883 3.90513 22.445L1.82276 26.3425C1.65749 26.6524 1.79121 26.8166 2.12324 26.7089C2.12324 26.7089 2.9586 26.4323 3.76991 26.1883C5.7396 25.5918 9.38074 24.7079 9.38074 24.7079C9.75876 24.594 10.083 24.341 10.292 23.9967L13.1594 18.6289C13.3246 18.319 13.1917 18.1563 12.8634 18.2663C12.8574 18.2663 10.8163 18.9426 8.74296 19.7592Z" fill="#F94D12"/>
  <path d="M27.233 22.0702C27.3041 22.0744 27.375 22.0577 27.4373 22.022C27.4996 21.9862 27.5507 21.933 27.5847 21.8684C27.6188 21.8038 27.6343 21.7306 27.6295 21.6573C27.6246 21.5839 27.5997 21.5135 27.5575 21.4543L24.8126 16.3142C24.7167 16.1554 24.5794 16.0276 24.4164 15.9454C24.2534 15.8632 24.0713 15.83 23.8908 15.8494L18.3904 16.8085C18.3167 16.8164 18.2462 16.8438 18.1857 16.888C18.1252 16.9323 18.0768 16.9918 18.0451 17.061C18.0135 17.1301 17.9997 17.2065 18.005 17.2828C18.0104 17.3591 18.0347 17.4326 18.0757 17.4964L20.5547 22.1337C20.6521 22.2946 20.7891 22.426 20.9519 22.5145C21.1146 22.6029 21.2972 22.6453 21.4809 22.6372L27.233 22.0702Z" fill="#F94D12"/>
  <path d="M23.5022 13.8545L23.0011 12.9164L22.0373 11.1114L20.746 8.69432C20.6578 8.54082 20.5213 8.42302 20.3593 8.36046C20.1972 8.2979 20.0193 8.29434 19.855 8.35036C16.6156 9.28563 13.5075 10.6501 10.6083 12.4097C9.63174 13.0775 8.77911 13.8042 8.77911 13.8042C8.4701 14.0843 8.20592 14.4129 7.99635 14.778L5.6811 19.1124C5.51658 19.4222 5.63678 19.5532 5.95004 19.4037C5.95004 19.4037 6.55101 19.1178 7.2271 18.8265C9.64384 17.7908 12.1273 16.929 14.6596 16.2476L14.8099 16.2073C17.7396 15.4326 23.1844 14.5215 23.1844 14.5215C23.2577 14.5174 23.3286 14.4932 23.3898 14.4515C23.451 14.4097 23.5003 14.3519 23.5327 14.284C23.565 14.2161 23.5793 14.1405 23.5739 14.065C23.5686 13.9895 23.5438 13.9169 23.5022 13.8545Z" fill="#F94D12"/>
  <path d="M10.4538 10.8603C11.8718 9.9994 13.3338 9.2179 14.8334 8.51923C16.3899 7.85299 19.1566 7.02794 19.1566 7.02794C19.231 7.01029 19.3002 6.9746 19.3585 6.92385C19.4169 6.87309 19.4626 6.80873 19.492 6.7361C19.5214 6.66347 19.5335 6.58466 19.5274 6.50621C19.5214 6.42776 19.4973 6.35193 19.4571 6.28502L16.8955 1.48658C16.3696 0.608851 15.5485 0.643713 15.0422 1.59194L15.0362 1.59658L10.2142 10.6248C10.0489 10.9332 10.1571 11.0393 10.4538 10.8603Z" fill="#F94D12"/>
  <path d="M31.8507 29.487L28.8932 23.9526C28.8235 23.8081 28.7204 23.6834 28.5929 23.5898C28.4654 23.4961 28.3175 23.4364 28.1622 23.4158L27.9436 23.432C19.9139 23.9204 11.958 25.294 4.21196 27.5294C2.79441 27.957 1.13197 28.5427 1.13197 28.5427C0.935056 28.5922 0.751853 28.6879 0.596566 28.8222C0.441278 28.9566 0.318078 29.126 0.236524 29.3174L0.149385 29.4847C-0.265286 30.4081 0.20873 31.1402 1.25668 31.1402L1.30926 31.1464H30.7449C31.7906 31.1441 32.2654 30.4097 31.8507 29.487Z" fill="#F94D12"/>
</svg>