<svg xmlns="http://www.w3.org/2000/svg" width="32" height="32" fill="none"><path d="M8.7 19.8c-1.3.5-2.7 1-4 1.8l-.8.8-2 4c-.2.3-.1.4.2.3l1.7-.5 5.6-1.5c.4-.1.7-.4.9-.7l2.9-5.4c.1-.3 0-.4-.3-.3 0 0-2 .6-4.2 1.5ZM27.2 22h.2l.2-.1a.4.4 0 0 0 0-.4l-2.8-5.2a1 1 0 0 0-.4-.4 1 1 0 0 0-.5 0l-5.5 1h-.2a.4.4 0 0 0-.2.4v.2l2.6 4.6c0 .2.2.3.4.4l.5.1 5.7-.5ZM23.5 13.9l-.5-1-1-1.8-1.3-2.4c0-.2-.2-.3-.3-.3h-.5c-3.3.9-6.4 2.3-9.3 4l-1.8 1.4a4 4 0 0 0-.8 1L5.7 19c-.2.3 0 .5.3.3l1.2-.6c2.4-1 5-1.9 7.5-2.6h.1a124.7 124.7 0 0 1 8.7-2 .4.4 0 0 0 0-.3ZM10.5 10.9c1.4-.9 2.8-1.7 4.3-2.4L19.2 7a.5.5 0 0 0 .3-.3.5.5 0 0 0 0-.4l-2.6-4.8c-.5-.9-1.4-.9-1.9 0v.1l-4.8 9c-.2.3 0 .4.3.3ZM31.9 29.5l-3-5.5a1 1 0 0 0-.3-.4 1 1 0 0 0-.4-.2h-.3c-8 .5-16 1.9-23.7 4.1l-3 1a1.3 1.3 0 0 0-1 .8v.2c-.5 1 0 1.6 1 1.6h29.5c1 0 1.6-.7 1.2-1.6Z" fill="#F94D12"/></svg>