<svg width="30" height="31" viewBox="0 0 30 31" fill="none" xmlns="http://www.w3.org/2000/svg">
<rect x="7.5" y="8" width="15" height="15" rx="7.5" stroke="#FEFEFE"/>
<path d="M14.5135 19.5V14.2H15.4735V19.5H14.5135ZM14.9935 13.18C14.8068 13.18 14.6502 13.12 14.5235 13C14.4035 12.88 14.3435 12.7333 14.3435 12.56C14.3435 12.38 14.4035 12.23 14.5235 12.11C14.6502 11.99 14.8068 11.93 14.9935 11.93C15.1802 11.93 15.3335 11.99 15.4535 12.11C15.5802 12.2233 15.6435 12.3667 15.6435 12.54C15.6435 12.72 15.5835 12.8733 15.4635 13C15.3435 13.12 15.1868 13.18 14.9935 13.18Z" fill="#FEFEFE"/>
</svg>
