<svg width="299" height="268" viewBox="0 0 299 268" fill="none" xmlns="http://www.w3.org/2000/svg">
<g filter="url(#filter0_d_9159_83)">
<rect width="286.932" height="23.5829" transform="translate(21.8281 45.8262) rotate(20.5672)" fill="#FFF7CC"/>
<path d="M35.0101 69.2411L34.4944 58.5804L36.7883 59.4411L37.1994 68.8663L35.8493 68.3597L42.4115 61.5511L44.5218 62.3429L37.1074 70.028L35.0101 69.2411ZM41.8451 71.8057L45.2879 62.6304L47.4113 63.4271L43.9685 72.6025L41.8451 71.8057ZM46.146 73.4195L49.5888 64.2442L53.5604 65.7344C54.3818 66.0426 55.0388 66.4437 55.5314 66.9375C56.0273 67.4226 56.3434 67.9749 56.4798 68.5943C56.6162 69.2137 56.5549 69.8686 56.2959 70.5589C56.0402 71.2405 55.6572 71.7697 55.147 72.1465C54.6367 72.5232 54.0337 72.7356 53.3378 72.7835C52.6453 72.8227 51.8883 72.6882 51.0669 72.38L48.2749 71.3324L49.5777 70.7296L48.2695 74.2163L46.146 73.4195ZM49.4892 70.9656L48.9241 69.6022L51.5981 70.6055C52.2535 70.8514 52.7953 70.8952 53.2235 70.7369C53.6518 70.5786 53.9594 70.2504 54.1463 69.7523C54.3364 69.2455 54.3223 68.7916 54.1039 68.3906C53.8855 67.9897 53.4486 67.6663 52.7933 67.4204L50.1193 66.417L51.4417 65.7618L49.4892 70.9656ZM61.4693 76.8813C61.1722 76.7699 60.9232 76.5967 60.7222 76.3618C60.5333 76.1214 60.4104 75.851 60.3537 75.5506C60.3002 75.2414 60.3342 74.9252 60.4555 74.6019C60.5768 74.2786 60.7576 74.0224 60.998 73.8335C61.2383 73.6446 61.5071 73.5261 61.8042 73.4781C62.1134 73.4246 62.4165 73.4536 62.7136 73.5651C63.0107 73.6766 63.2538 73.8525 63.4427 74.0929C63.6436 74.3278 63.7725 74.5954 63.8292 74.8958C63.886 75.1963 63.8537 75.5081 63.7324 75.8315C63.6111 76.1548 63.4286 76.4153 63.1849 76.6129C62.9446 76.8019 62.6698 76.9231 62.3607 76.9766C62.0635 77.0246 61.7664 76.9928 61.4693 76.8813ZM70.621 82.6031L70.1053 71.9424L72.3991 72.8031L72.8102 82.2283L71.4601 81.7217L78.0223 74.913L80.1326 75.7049L72.7182 83.39L70.621 82.6031ZM77.4559 85.1677L80.8987 75.9923L83.0221 76.7891L79.5793 85.9645L77.4559 85.1677ZM81.7568 86.7815L85.1996 77.6061L89.1713 79.0964C89.9927 79.4046 90.6497 79.8056 91.1422 80.2995C91.6381 80.7846 91.9542 81.3369 92.0906 81.9563C92.2271 82.5757 92.1658 83.2306 91.9067 83.9209C91.651 84.6025 91.268 85.1317 90.7578 85.5084C90.2476 85.8852 89.6445 86.0976 88.9487 86.1455C88.2561 86.1847 87.4991 86.0502 86.6777 85.742L83.8858 84.6944L85.1885 84.0916L83.8803 87.5783L81.7568 86.7815ZM85.1 84.3276L84.535 82.9642L87.2089 83.9675C87.8643 84.2134 88.4061 84.2572 88.8344 84.0989C89.2626 83.9406 89.5702 83.6124 89.7571 83.1143C89.9473 82.6075 89.9331 82.1536 89.7147 81.7526C89.4963 81.3517 89.0595 81.0283 88.4041 80.7823L85.7301 79.779L87.0526 79.1238L85.1 84.3276ZM97.0801 90.2433C96.783 90.1318 96.534 89.9587 96.333 89.7238C96.1441 89.4834 96.0213 89.213 95.9645 88.9126C95.911 88.6034 95.945 88.2872 96.0663 87.9639C96.1876 87.6405 96.3684 87.3844 96.6088 87.1955C96.8492 87.0065 97.1179 86.8881 97.4151 86.8401C97.7242 86.7866 98.0273 86.8156 98.3244 86.9271C98.6216 87.0386 98.8646 87.2145 99.0535 87.4549C99.2545 87.6898 99.3833 87.9574 99.4401 88.2578C99.4968 88.5582 99.4645 88.8701 99.3432 89.1934C99.2219 89.5168 99.0394 89.7773 98.7958 89.9749C98.5554 90.1639 98.2806 90.2851 97.9715 90.3385C97.6744 90.3865 97.3772 90.3548 97.0801 90.2433ZM106.232 95.9651L105.716 85.3044L108.01 86.1651L108.421 95.5903L107.071 95.0837L113.633 88.275L115.743 89.0669L108.329 96.752L106.232 95.9651ZM113.067 98.5297L116.51 89.3543L118.633 90.1511L115.19 99.3264L113.067 98.5297ZM117.368 100.143L120.81 90.9681L124.782 92.4584C125.603 92.7666 126.26 93.1676 126.753 93.6615C127.249 94.1466 127.565 94.6989 127.701 95.3183C127.838 95.9377 127.777 96.5925 127.518 97.2829C127.262 97.9645 126.879 98.4937 126.369 98.8704C125.858 99.2472 125.255 99.4596 124.559 99.5075C123.867 99.5467 123.11 99.4122 122.289 99.104L119.497 98.0564L120.799 97.4536L119.491 100.94L117.368 100.143ZM120.711 97.6896L120.146 96.3261L122.82 97.3295C123.475 97.5754 124.017 97.6192 124.445 97.4609C124.873 97.3026 125.181 96.9744 125.368 96.4763C125.558 95.9695 125.544 95.5156 125.326 95.1146C125.107 94.7137 124.67 94.3902 124.015 94.1443L121.341 93.141L122.663 92.4858L120.711 97.6896ZM132.691 103.605C132.394 103.494 132.145 103.321 131.944 103.086C131.755 102.845 131.632 102.575 131.575 102.275C131.522 101.965 131.556 101.649 131.677 101.326C131.798 101.003 131.979 100.746 132.22 100.557C132.46 100.369 132.729 100.25 133.026 100.202C133.335 100.149 133.638 100.178 133.935 100.289C134.232 100.401 134.475 100.576 134.664 100.817C134.865 101.052 134.994 101.319 135.051 101.62C135.108 101.92 135.075 102.232 134.954 102.555C134.833 102.879 134.65 103.139 134.407 103.337C134.166 103.526 133.891 103.647 133.582 103.701C133.285 103.749 132.988 103.717 132.691 103.605ZM141.843 109.327L141.327 98.6664L143.621 99.5271L144.032 108.952L142.682 108.446L149.244 101.637L151.354 102.429L143.94 110.114L141.843 109.327ZM148.678 111.892L152.12 102.716L154.244 103.513L150.801 112.688L148.678 111.892ZM152.978 113.505L156.421 104.33L160.393 105.82C161.214 106.129 161.871 106.53 162.364 107.023C162.86 107.509 163.176 108.061 163.312 108.68C163.449 109.3 163.387 109.955 163.128 110.645C162.873 111.326 162.49 111.856 161.979 112.232C161.469 112.609 160.866 112.822 160.17 112.869C159.478 112.909 158.721 112.774 157.899 112.466L155.107 111.418L156.41 110.816L155.102 114.302L152.978 113.505ZM156.322 111.052L155.757 109.688L158.431 110.691C159.086 110.937 159.628 110.981 160.056 110.823C160.484 110.665 160.792 110.336 160.979 109.838C161.169 109.331 161.155 108.878 160.936 108.477C160.718 108.076 160.281 107.752 159.626 107.506L156.952 106.503L158.274 105.848L156.322 111.052ZM168.302 116.967C168.005 116.856 167.756 116.683 167.555 116.448C167.366 116.207 167.243 115.937 167.186 115.637C167.133 115.327 167.167 115.011 167.288 114.688C167.409 114.365 167.59 114.108 167.83 113.919C168.071 113.731 168.34 113.612 168.637 113.564C168.946 113.511 169.249 113.54 169.546 113.651C169.843 113.763 170.086 113.938 170.275 114.179C170.476 114.414 170.605 114.681 170.662 114.982C170.718 115.282 170.686 115.594 170.565 115.917C170.444 116.241 170.261 116.501 170.017 116.699C169.777 116.888 169.502 117.009 169.193 117.063C168.896 117.111 168.599 117.079 168.302 116.967ZM177.453 122.689L176.938 112.028L179.232 112.889L179.643 122.314L178.293 121.808L184.855 114.999L186.965 115.791L179.551 123.476L177.453 122.689ZM184.288 125.254L187.731 116.078L189.855 116.875L186.412 126.05L184.288 125.254ZM188.589 126.867L192.032 117.692L196.004 119.182C196.825 119.491 197.482 119.892 197.975 120.385C198.471 120.871 198.787 121.423 198.923 122.042C199.06 122.662 198.998 123.317 198.739 124.007C198.483 124.688 198.1 125.218 197.59 125.594C197.08 125.971 196.477 126.184 195.781 126.231C195.089 126.271 194.332 126.136 193.51 125.828L190.718 124.78L192.021 124.178L190.713 127.664L188.589 126.867ZM191.932 124.414L191.367 123.05L194.041 124.053C194.697 124.299 195.239 124.343 195.667 124.185C196.095 124.027 196.403 123.698 196.59 123.2C196.78 122.693 196.766 122.24 196.547 121.839C196.329 121.438 195.892 121.114 195.237 120.868L192.563 119.865L193.885 119.21L191.932 124.414ZM203.913 130.329C203.615 130.218 203.366 130.045 203.165 129.81C202.977 129.569 202.854 129.299 202.797 128.999C202.744 128.689 202.777 128.373 202.899 128.05C203.02 127.727 203.201 127.47 203.441 127.281C203.682 127.093 203.95 126.974 204.248 126.926C204.557 126.873 204.86 126.902 205.157 127.013C205.454 127.125 205.697 127.3 205.886 127.541C206.087 127.776 206.216 128.043 206.273 128.344C206.329 128.644 206.297 128.956 206.176 129.279C206.054 129.603 205.872 129.863 205.628 130.061C205.388 130.25 205.113 130.371 204.804 130.424C204.507 130.472 204.21 130.441 203.913 130.329ZM213.064 136.051L212.549 125.39L214.842 126.251L215.253 135.676L213.903 135.17L220.466 128.361L222.576 129.153L215.161 136.838L213.064 136.051ZM219.899 138.616L223.342 129.44L225.465 130.237L222.023 139.412L219.899 138.616ZM224.2 140.229L227.643 131.054L231.615 132.544C232.436 132.853 233.093 133.254 233.586 133.747C234.081 134.233 234.397 134.785 234.534 135.404C234.67 136.024 234.609 136.678 234.35 137.369C234.094 138.05 233.711 138.58 233.201 138.956C232.691 139.333 232.088 139.546 231.392 139.593C230.699 139.633 229.942 139.498 229.121 139.19L226.329 138.142L227.632 137.54L226.324 141.026L224.2 140.229ZM227.543 137.776L226.978 136.412L229.652 137.415C230.308 137.661 230.849 137.705 231.278 137.547C231.706 137.389 232.013 137.06 232.2 136.562C232.391 136.055 232.376 135.602 232.158 135.201C231.94 134.8 231.503 134.476 230.847 134.23L228.173 133.227L229.496 132.572L227.543 137.776ZM239.523 143.691C239.226 143.58 238.977 143.407 238.776 143.172C238.587 142.931 238.465 142.661 238.408 142.361C238.354 142.051 238.388 141.735 238.51 141.412C238.631 141.088 238.812 140.832 239.052 140.643C239.292 140.454 239.561 140.336 239.858 140.288C240.167 140.235 240.471 140.264 240.768 140.375C241.065 140.487 241.308 140.662 241.497 140.903C241.698 141.138 241.827 141.405 241.883 141.706C241.94 142.006 241.908 142.318 241.786 142.641C241.665 142.965 241.483 143.225 241.239 143.423C240.999 143.612 240.724 143.733 240.415 143.786C240.118 143.834 239.821 143.803 239.523 143.691ZM248.675 149.413L248.159 138.752L250.453 139.613L250.864 149.038L249.514 148.532L256.076 141.723L258.187 142.515L250.772 150.2L248.675 149.413ZM255.51 151.978L258.953 142.802L261.076 143.599L257.633 152.774L255.51 151.978ZM259.811 153.591L263.254 144.416L267.225 145.906C268.047 146.215 268.704 146.616 269.196 147.109C269.692 147.595 270.008 148.147 270.145 148.766C270.281 149.386 270.22 150.04 269.961 150.731C269.705 151.412 269.322 151.942 268.812 152.318C268.302 152.695 267.699 152.907 267.003 152.955C266.31 152.995 265.553 152.86 264.732 152.552L261.94 151.504L263.243 150.902L261.934 154.388L259.811 153.591ZM263.154 151.137L262.589 149.774L265.263 150.777C265.918 151.023 266.46 151.067 266.888 150.909C267.317 150.751 267.624 150.422 267.811 149.924C268.001 149.417 267.987 148.964 267.769 148.563C267.55 148.162 267.114 147.838 266.458 147.592L263.784 146.589L265.107 145.934L263.154 151.137Z" fill="#16375C"/>
</g>
<g filter="url(#filter1_d_9159_83)">
<rect width="326" height="29" transform="translate(28.5059 6) rotate(45)" fill="#FFF7CC"/>
<path d="M22.0653 26.4294L30.6524 23.1371L32.0101 24.4948L28.7262 33.0904L27.2838 31.6479L30.3554 24.2317L30.8985 24.7748L23.4739 27.838L22.0653 26.4294ZM24.6618 26.4803L26.0704 25.8015L29.1251 28.8562L28.4547 30.2733L24.6618 26.4803ZM30.2745 34.6387L35.0942 29.819L33.1935 27.9183L34.3135 26.7983L39.4896 31.9743L38.3695 33.0943L36.4688 31.1936L31.6492 36.0133L30.2745 34.6387ZM39.1006 36.3711L41.9602 39.2306L40.891 40.2997L38.0315 37.4402L39.1006 36.3711ZM36.7587 38.9166L39.9916 42.1495L38.8885 43.2526L34.2895 38.6536L40.2292 32.7139L44.7179 37.2026L43.6148 38.3057L40.4922 35.1831L36.7587 38.9166ZM39.9822 44.3464L45.9219 38.4067L47.059 39.5437L46.2868 47.3247L45.7353 46.7732L50.0118 42.4966L51.3695 43.8542L45.4298 49.7939L44.3012 48.6654L45.0649 40.8759L45.6165 41.4274L41.3399 45.704L39.9822 44.3464ZM46.8351 51.1992L52.7748 45.2595L55.4731 47.9578C56.118 48.6027 56.5621 49.2957 56.8053 50.0367C57.0542 50.7721 57.0966 51.499 56.9326 52.2175C56.7685 52.9359 56.3839 53.5977 55.7786 54.203C55.179 54.8026 54.5171 55.1873 53.793 55.357C53.0746 55.5211 52.3449 55.4815 51.6038 55.2382C50.8684 54.9893 50.1783 54.5424 49.5334 53.8975L46.8351 51.1992ZM49.3383 51.4453L50.5941 52.7011C50.9901 53.0971 51.4058 53.3658 51.8414 53.5072C52.2883 53.6486 52.7295 53.66 53.1651 53.5412C53.6064 53.428 54.0136 53.1848 54.387 52.8114C54.766 52.4324 55.0093 52.0251 55.1167 51.5895C55.2355 51.154 55.2214 50.7156 55.0743 50.2743C54.9385 49.8331 54.6727 49.4145 54.2767 49.0185L53.0209 47.7627L49.3383 51.4453ZM53.8454 58.2095L59.7851 52.2698L61.1597 53.6444L55.22 59.5841L53.8454 58.2095ZM56.6296 60.9938L62.5693 55.0541L63.7064 56.1911L62.0432 62.9114L61.4408 62.309L68.1187 60.6034L69.2472 61.732L63.3245 67.6886L62.0348 66.3989L65.9889 62.4278L66.2265 62.6654L60.9062 64.0145L60.2868 63.3951L61.5935 58.0324L61.882 58.3209L57.9194 62.2835L56.6296 60.9938ZM69.5449 66.8153L72.4044 69.6749L71.3353 70.744L68.4757 67.8845L69.5449 66.8153ZM67.203 69.3609L70.4358 72.5938L69.3328 73.6969L64.7337 69.0979L70.6734 63.1582L75.1622 67.6469L74.0591 68.75L70.9365 65.6274L67.203 69.3609ZM70.4265 74.7906L76.3662 68.8509L77.5032 69.988L76.7311 77.769L76.1795 77.2174L80.4561 72.9408L81.8137 74.2985L75.8741 80.2382L74.7455 79.1096L75.5092 71.3201L76.0607 71.8717L71.7841 76.1483L70.4265 74.7906ZM78.5097 82.8738L83.3294 78.0542L81.4287 76.1535L82.5487 75.0334L87.7247 80.2095L86.6047 81.3295L84.704 79.4288L79.8843 84.2485L78.5097 82.8738ZM85.225 89.7927C84.7554 89.3232 84.3962 88.8113 84.1473 88.2569C83.9041 87.7082 83.774 87.1482 83.757 86.5768C83.7457 86.0111 83.8447 85.4596 84.054 84.9222C84.269 84.3904 84.5971 83.9039 85.0383 83.4627C85.4795 83.0215 85.966 82.6934 86.4978 82.4784C87.0352 82.2691 87.5895 82.173 88.1609 82.1899C88.7322 82.2069 89.2922 82.337 89.841 82.5802C90.3897 82.8235 90.896 83.177 91.3598 83.6409C91.8293 84.1104 92.1829 84.6167 92.4205 85.1598C92.6637 85.7085 92.791 86.2657 92.8023 86.8314C92.8193 87.4027 92.7231 87.9571 92.5138 88.4945C92.3102 89.0262 91.9849 89.5155 91.538 89.9624C91.0968 90.4037 90.6046 90.7318 90.0616 90.9467C89.5242 91.156 88.9698 91.2522 88.3985 91.2352C87.8384 91.2183 87.2841 91.0882 86.7353 90.8449C86.1923 90.6073 85.6888 90.2566 85.225 89.7927ZM86.3874 88.6133C86.6533 88.8792 86.9418 89.0771 87.2529 89.2072C87.5697 89.343 87.8978 89.4109 88.2372 89.4109C88.5767 89.4109 88.9076 89.3402 89.23 89.1988C89.5581 89.063 89.8636 88.8537 90.1464 88.5709C90.4293 88.288 90.6386 87.9825 90.7743 87.6544C90.9158 87.332 90.9865 87.0011 90.9865 86.6617C90.9921 86.3279 90.9271 86.0026 90.7913 85.6859C90.6555 85.3691 90.4547 85.0777 90.1889 84.8119C89.923 84.546 89.6317 84.3452 89.3149 84.2094C89.0037 84.0793 88.6785 84.0143 88.3391 84.0143C87.9997 84.0143 87.6659 84.0821 87.3378 84.2179C87.0154 84.3593 86.7127 84.5715 86.4299 84.8543C86.1527 85.1315 85.9406 85.4341 85.7935 85.7622C85.6577 86.0903 85.587 86.4212 85.5813 86.755C85.5813 87.0944 85.6492 87.4225 85.785 87.7393C85.9208 88.0561 86.1216 88.3474 86.3874 88.6133ZM94.1171 95.8848C93.9248 95.6924 93.7919 95.469 93.7183 95.2144C93.6561 94.9599 93.6561 94.7053 93.7183 94.4508C93.7862 94.1905 93.9248 93.9558 94.1341 93.7465C94.3434 93.5372 94.5753 93.4014 94.8299 93.3392C95.0845 93.277 95.3362 93.2798 95.5851 93.3477C95.8453 93.4156 96.0716 93.5457 96.2639 93.738C96.4563 93.9303 96.5835 94.1538 96.6458 94.4083C96.7193 94.6629 96.725 94.9174 96.6627 95.172C96.6005 95.4266 96.4647 95.6585 96.2554 95.8678C96.0461 96.0771 95.8114 96.2157 95.5512 96.2836C95.2966 96.3458 95.0392 96.343 94.779 96.2751C94.5301 96.2072 94.3095 96.0771 94.1171 95.8848ZM96.6678 101.032L105.255 97.7397L106.613 99.0973L103.329 107.693L101.886 106.25L104.958 98.8343L105.501 99.3773L98.0764 102.441L96.6678 101.032ZM99.2643 101.083L100.673 100.404L103.728 103.459L103.057 104.876L99.2643 101.083ZM104.877 109.241L109.697 104.422L107.796 102.521L108.916 101.401L114.092 106.577L112.972 107.697L111.071 105.796L106.252 110.616L104.877 109.241ZM113.703 110.974L116.563 113.833L115.494 114.902L112.634 112.043L113.703 110.974ZM111.361 113.519L114.594 116.752L113.491 117.855L108.892 113.256L114.832 107.316L119.32 111.805L118.217 112.908L115.095 109.786L111.361 113.519ZM114.585 118.949L120.524 113.009L121.661 114.146L120.889 121.927L120.338 121.376L124.614 117.099L125.972 118.457L120.032 124.396L118.904 123.268L119.667 115.478L120.219 116.03L115.942 120.307L114.585 118.949ZM121.438 125.802L127.377 119.862L130.076 122.56C130.721 123.205 131.165 123.898 131.408 124.639C131.657 125.375 131.699 126.102 131.535 126.82C131.371 127.538 130.986 128.2 130.381 128.806C129.781 129.405 129.12 129.79 128.396 129.96C127.677 130.124 126.947 130.084 126.206 129.841C125.471 129.592 124.781 129.145 124.136 128.5L121.438 125.802ZM123.941 126.048L125.197 127.304C125.593 127.7 126.008 127.968 126.444 128.11C126.891 128.251 127.332 128.262 127.768 128.144C128.209 128.031 128.616 127.787 128.99 127.414C129.369 127.035 129.612 126.628 129.719 126.192C129.838 125.756 129.824 125.318 129.677 124.877C129.541 124.436 129.275 124.017 128.879 123.621L127.623 122.365L123.941 126.048ZM128.448 132.812L134.388 126.872L135.762 128.247L129.823 134.187L128.448 132.812ZM131.232 135.596L137.172 129.657L138.309 130.794L136.646 137.514L136.043 136.912L142.721 135.206L143.85 136.335L137.927 142.291L136.637 141.001L140.591 137.03L140.829 137.268L135.509 138.617L134.889 137.998L136.196 132.635L136.485 132.923L132.522 136.886L131.232 135.596ZM144.147 141.418L147.007 144.277L145.938 145.347L143.078 142.487L144.147 141.418ZM141.805 143.963L145.038 147.196L143.935 148.299L139.336 143.7L145.276 137.761L149.765 142.249L148.662 143.352L145.539 140.23L141.805 143.963ZM145.029 149.393L150.969 143.453L152.106 144.59L151.334 152.371L150.782 151.82L155.059 147.543L156.416 148.901L150.477 154.841L149.348 153.712L150.112 145.923L150.663 146.474L146.387 150.751L145.029 149.393ZM153.112 157.476L157.932 152.657L156.031 150.756L157.151 149.636L162.327 154.812L161.207 155.932L159.307 154.031L154.487 158.851L153.112 157.476ZM159.827 164.395C159.358 163.926 158.999 163.414 158.75 162.859C158.507 162.311 158.377 161.751 158.36 161.179C158.348 160.614 158.447 160.062 158.657 159.525C158.871 158.993 159.2 158.506 159.641 158.065C160.082 157.624 160.569 157.296 161.1 157.081C161.638 156.872 162.192 156.775 162.763 156.792C163.335 156.809 163.895 156.94 164.443 157.183C164.992 157.426 165.498 157.78 165.962 158.243C166.432 158.713 166.785 159.219 167.023 159.762C167.266 160.311 167.394 160.868 167.405 161.434C167.422 162.005 167.326 162.56 167.116 163.097C166.913 163.629 166.587 164.118 166.141 164.565C165.699 165.006 165.207 165.334 164.664 165.549C164.127 165.759 163.572 165.855 163.001 165.838C162.441 165.821 161.887 165.691 161.338 165.447C160.795 165.21 160.291 164.859 159.827 164.395ZM160.99 163.216C161.256 163.482 161.544 163.68 161.855 163.81C162.172 163.946 162.5 164.013 162.84 164.013C163.179 164.013 163.51 163.943 163.833 163.801C164.161 163.666 164.466 163.456 164.749 163.173C165.032 162.891 165.241 162.585 165.377 162.257C165.518 161.935 165.589 161.604 165.589 161.264C165.595 160.93 165.53 160.605 165.394 160.288C165.258 159.972 165.057 159.68 164.791 159.414C164.526 159.149 164.234 158.948 163.917 158.812C163.606 158.682 163.281 158.617 162.942 158.617C162.602 158.617 162.268 158.685 161.94 158.82C161.618 158.962 161.315 159.174 161.032 159.457C160.755 159.734 160.543 160.037 160.396 160.365C160.26 160.693 160.19 161.024 160.184 161.358C160.184 161.697 160.252 162.025 160.388 162.342C160.523 162.659 160.724 162.95 160.99 163.216ZM168.72 170.487C168.527 170.295 168.394 170.072 168.321 169.817C168.259 169.562 168.259 169.308 168.321 169.053C168.389 168.793 168.527 168.558 168.737 168.349C168.946 168.14 169.178 168.004 169.432 167.942C169.687 167.879 169.939 167.882 170.188 167.95C170.448 168.018 170.674 168.148 170.866 168.341C171.059 168.533 171.186 168.756 171.248 169.011C171.322 169.265 171.327 169.52 171.265 169.775C171.203 170.029 171.067 170.261 170.858 170.47C170.649 170.68 170.414 170.818 170.154 170.886C169.899 170.948 169.642 170.946 169.382 170.878C169.133 170.81 168.912 170.68 168.72 170.487ZM171.27 175.634L179.857 172.342L181.215 173.7L177.931 182.295L176.489 180.853L179.56 173.437L180.104 173.98L172.679 177.043L171.27 175.634ZM173.867 175.685L175.275 175.007L178.33 178.061L177.66 179.478L173.867 175.685ZM179.48 183.844L184.299 179.024L182.399 177.123L183.519 176.003L188.695 181.179L187.575 182.299L185.674 180.399L180.854 185.218L179.48 183.844ZM188.306 185.576L191.165 188.436L190.096 189.505L187.237 186.645L188.306 185.576ZM185.964 188.122L189.197 191.355L188.094 192.458L183.495 187.859L189.434 181.919L193.923 186.408L192.82 187.511L189.697 184.388L185.964 188.122ZM189.187 193.551L195.127 187.612L196.264 188.749L195.492 196.53L194.94 195.978L199.217 191.702L200.575 193.059L194.635 198.999L193.506 197.87L194.27 190.081L194.822 190.632L190.545 194.909L189.187 193.551ZM196.04 200.404L201.98 194.465L204.678 197.163C205.323 197.808 205.767 198.501 206.01 199.242C206.259 199.977 206.302 200.704 206.138 201.423C205.974 202.141 205.589 202.803 204.984 203.408C204.384 204.008 203.722 204.392 202.998 204.562C202.28 204.726 201.55 204.687 200.809 204.443C200.073 204.194 199.383 203.747 198.738 203.103L196.04 200.404ZM198.543 200.65L199.799 201.906C200.195 202.302 200.611 202.571 201.046 202.712C201.493 202.854 201.935 202.865 202.37 202.746C202.811 202.633 203.219 202.39 203.592 202.016C203.971 201.637 204.214 201.23 204.322 200.795C204.441 200.359 204.426 199.921 204.279 199.479C204.144 199.038 203.878 198.62 203.482 198.224L202.226 196.968L198.543 200.65ZM203.05 207.415L208.99 201.475L210.365 202.85L204.425 208.789L203.05 207.415ZM205.835 210.199L211.774 204.259L212.911 205.396L211.248 212.116L210.646 211.514L217.324 209.808L218.452 210.937L212.53 216.894L211.24 215.604L215.194 211.633L215.432 211.87L210.111 213.22L209.492 212.6L210.799 207.237L211.087 207.526L207.124 211.489L205.835 210.199ZM218.75 216.02L221.609 218.88L220.54 219.949L217.681 217.09L218.75 216.02ZM216.408 218.566L219.641 221.799L218.538 222.902L213.939 218.303L219.878 212.363L224.367 216.852L223.264 217.955L220.142 214.832L216.408 218.566ZM219.632 223.996L225.571 218.056L226.708 219.193L225.936 226.974L225.385 226.422L229.661 222.146L231.019 223.504L225.079 229.443L223.951 228.315L224.714 220.525L225.266 221.077L220.989 225.353L219.632 223.996ZM227.715 232.079L232.534 227.259L230.634 225.359L231.754 224.239L236.93 229.415L235.81 230.535L233.909 228.634L229.089 233.454L227.715 232.079ZM234.43 238.998C233.96 238.528 233.601 238.016 233.352 237.462C233.109 236.913 232.979 236.353 232.962 235.782C232.951 235.216 233.05 234.665 233.259 234.127C233.474 233.596 233.802 233.109 234.243 232.668C234.685 232.227 235.171 231.898 235.703 231.683C236.24 231.474 236.795 231.378 237.366 231.395C237.937 231.412 238.497 231.542 239.046 231.785C239.595 232.029 240.101 232.382 240.565 232.846C241.034 233.315 241.388 233.822 241.626 234.365C241.869 234.914 241.996 235.471 242.007 236.036C242.024 236.608 241.928 237.162 241.719 237.7C241.515 238.231 241.19 238.721 240.743 239.168C240.302 239.609 239.81 239.937 239.267 240.152C238.729 240.361 238.175 240.457 237.604 240.44C237.043 240.423 236.489 240.293 235.94 240.05C235.397 239.812 234.894 239.462 234.43 238.998ZM235.593 237.818C235.858 238.084 236.147 238.282 236.458 238.412C236.775 238.548 237.103 238.616 237.442 238.616C237.782 238.616 238.113 238.545 238.435 238.404C238.763 238.268 239.069 238.059 239.351 237.776C239.634 237.493 239.844 237.188 239.979 236.86C240.121 236.537 240.192 236.206 240.192 235.867C240.197 235.533 240.132 235.208 239.996 234.891C239.861 234.574 239.66 234.283 239.394 234.017C239.128 233.751 238.837 233.55 238.52 233.414C238.209 233.284 237.884 233.219 237.544 233.219C237.205 233.219 236.871 233.287 236.543 233.423C236.22 233.564 235.918 233.777 235.635 234.059C235.358 234.337 235.146 234.639 234.999 234.967C234.863 235.295 234.792 235.626 234.786 235.96C234.786 236.299 234.854 236.628 234.99 236.944C235.126 237.261 235.327 237.552 235.593 237.818Z" fill="#16375C"/>
</g>
<defs>
<filter id="filter0_d_9159_83" x="5.54297" y="39.8262" width="292.928" height="138.881" filterUnits="userSpaceOnUse" color-interpolation-filters="sRGB">
<feFlood flood-opacity="0" result="BackgroundImageFix"/>
<feColorMatrix in="SourceAlpha" type="matrix" values="0 0 0 0 0 0 0 0 0 0 0 0 0 0 0 0 0 0 127 0" result="hardAlpha"/>
<feOffset dy="2"/>
<feGaussianBlur stdDeviation="4"/>
<feColorMatrix type="matrix" values="0 0 0 0 0.129412 0 0 0 0 0.145098 0 0 0 0 0.160784 0 0 0 0.12 0"/>
<feBlend mode="normal" in2="BackgroundImageFix" result="effect1_dropShadow_9159_83"/>
<feBlend mode="normal" in="SourceGraphic" in2="effect1_dropShadow_9159_83" result="shape"/>
</filter>
<filter id="filter1_d_9159_83" x="0" y="0" width="267.023" height="267.022" filterUnits="userSpaceOnUse" color-interpolation-filters="sRGB">
<feFlood flood-opacity="0" result="BackgroundImageFix"/>
<feColorMatrix in="SourceAlpha" type="matrix" values="0 0 0 0 0 0 0 0 0 0 0 0 0 0 0 0 0 0 127 0" result="hardAlpha"/>
<feOffset dy="2"/>
<feGaussianBlur stdDeviation="4"/>
<feColorMatrix type="matrix" values="0 0 0 0 0.129412 0 0 0 0 0.145098 0 0 0 0 0.160784 0 0 0 0.12 0"/>
<feBlend mode="normal" in2="BackgroundImageFix" result="effect1_dropShadow_9159_83"/>
<feBlend mode="normal" in="SourceGraphic" in2="effect1_dropShadow_9159_83" result="shape"/>
</filter>
</defs>
</svg>
