<svg width="299" height="268" fill="none" xmlns="http://www.w3.org/2000/svg"><g filter="url(#a)"><path fill="#FFF7CC" d="m21.8 45.8 268.6 100.8-8.2 22.1L13.5 68z"/><path d="m35 69.2-.5-10.6 2.3.8.4 9.5-1.4-.5 6.6-6.8 2.1.7-7.4 7.7-2-.8Zm6.8 2.6 3.5-9.2 2.1.8-3.4 9.2-2.2-.8Zm4.3 1.6 3.5-9.2 4 1.5c.8.3 1.4.7 2 1.2.4.5.7 1 .9 1.7.1.6 0 1.3-.2 2-.3.6-.6 1.2-1.2 1.5-.5.4-1 .6-1.8.7-.7 0-1.4-.1-2.2-.4l-2.8-1 1.3-.7-1.3 3.5-2.2-.8Zm3.4-2.4-.6-1.4 2.7 1c.7.3 1.2.3 1.6.1.5-.1.8-.4 1-1 .1-.5.1-1-.1-1.3-.2-.4-.7-.7-1.3-1l-2.7-1 1.3-.6-2 5.2Zm12 5.9-.8-.5c-.2-.3-.3-.5-.3-.8v-1a1.7 1.7 0 0 1 1.4-1.1 1.7 1.7 0 0 1 1.6.6 1.7 1.7 0 0 1 .3 1.7c0 .4-.3.6-.5.8l-.8.4-1-.1Zm9.1 5.7-.5-10.7 2.3.9.4 9.4-1.3-.5L78 75l2.1.8-7.4 7.7-2-.8Zm6.9 2.6 3.4-9.2 2.1.8-3.4 9.2-2.1-.8Zm4.3 1.6 3.4-9.2 4 1.5c.8.3 1.4.7 2 1.2.4.5.8 1 .9 1.7.1.6 0 1.2-.2 2-.2.6-.6 1.1-1.1 1.5-.6.4-1.2.6-1.9.6-.6 0-1.4 0-2.2-.4l-2.8-1 1.3-.6-1.3 3.5-2.1-.8Zm3.3-2.5-.6-1.3 2.7 1c.7.2 1.2.3 1.6.1.5-.2.8-.5 1-1v-1.3c-.3-.4-.7-.8-1.4-1l-2.7-1 1.4-.7-2 5.2Zm12 6c-.3-.2-.6-.3-.8-.6-.2-.2-.3-.5-.3-.8v-1a1.7 1.7 0 0 1 1.4-1 1.7 1.7 0 0 1 1.7.6 1.7 1.7 0 0 1 .2 1.7c0 .3-.3.6-.5.8-.2.2-.5.3-.8.3h-1Zm9.1 5.7-.5-10.7 2.3.9.4 9.4-1.3-.5 6.5-6.8 2.1.8-7.4 7.7-2-.8Zm6.9 2.5 3.4-9.1 2.1.8-3.4 9.1-2.1-.8Zm4.3 1.6 3.4-9.1 4 1.5c.8.3 1.5.7 2 1.2.4.4.8 1 .9 1.6.1.6 0 1.3-.2 2s-.6 1.2-1.1 1.6c-.5.3-1.1.6-1.8.6s-1.5 0-2.3-.4l-2.8-1 1.3-.6-1.3 3.4-2.1-.8Zm3.3-2.4-.6-1.4 2.7 1c.7.3 1.2.3 1.6.2.5-.2.8-.5 1-1 .2-.5.1-1 0-1.4-.3-.4-.7-.7-1.4-1l-2.7-1 1.4-.6-2 5.2Zm12 6-.8-.6c-.1-.3-.3-.5-.3-.8v-1a1.7 1.7 0 0 1 1.4-1.1 1.7 1.7 0 0 1 1.7.6 1.7 1.7 0 0 1 .3 1.8l-.6.7-.8.4h-1Zm9.1 5.6-.5-10.6 2.3.8.4 9.5-1.3-.6 6.5-6.8 2.2.8-7.5 7.7-2-.8Zm6.9 2.6 3.4-9.2 2.1.8-3.4 9.2-2.1-.8Zm4.3 1.6 3.4-9.2 4 1.5c.8.3 1.5.7 2 1.2s.8 1 1 1.7c0 .6 0 1.3-.3 2-.2.6-.6 1.2-1.1 1.5-.5.4-1.1.6-1.8.7-.7 0-1.5-.1-2.3-.4l-2.8-1 1.3-.7-1.3 3.5-2.1-.8Zm3.3-2.4-.5-1.4 2.6 1c.7.2 1.2.3 1.7.1.4-.1.7-.5.9-1 .2-.5.2-1 0-1.3-.3-.4-.7-.7-1.4-1l-2.6-1 1.3-.7-2 5.3Zm12 5.9c-.3-.1-.5-.3-.7-.6-.2-.2-.4-.5-.4-.8v-1a1.7 1.7 0 0 1 2.3-1c.3.2.6.3.8.6a1.7 1.7 0 0 1 .3 1.7c-.2.3-.3.6-.6.8l-.8.4-.9-.1Zm9.2 5.7-.6-10.7 2.3.9.4 9.4-1.3-.5 6.6-6.8 2 .8-7.3 7.7-2.1-.8Zm6.8 2.6 3.4-9.2 2.2.8-3.5 9.1-2.1-.7Zm4.3 1.6 3.4-9.2 4 1.5c.8.3 1.5.7 2 1.2s.8 1 1 1.6c0 .7 0 1.3-.3 2-.2.7-.6 1.2-1.1 1.6-.5.4-1.1.6-1.8.6s-1.5 0-2.3-.4l-2.8-1 1.3-.6-1.3 3.5-2.1-.8Zm3.3-2.5-.5-1.4 2.6 1c.7.3 1.2.3 1.7.2.4-.2.7-.5.9-1 .2-.5.2-1 0-1.4-.3-.4-.7-.7-1.4-1l-2.6-1 1.3-.6-2 5.2Zm12 6-.7-.6-.4-.8.1-1a1.7 1.7 0 0 1 2.3-1l.7.5a1.7 1.7 0 0 1 .3 1.8c-.1.3-.3.6-.6.8-.2.2-.5.3-.8.3h-.9Zm9.2 5.7-.6-10.7 2.3.9.5 9.4-1.4-.5 6.6-6.8 2 .8-7.3 7.6-2.1-.7Zm6.8 2.5 3.4-9.2 2.2.8-3.5 9.2-2.1-.8Zm4.3 1.6 3.4-9.1 4 1.4 2 1.2c.5.5.8 1 1 1.7 0 .6 0 1.3-.3 2-.2.7-.6 1.2-1.1 1.6-.5.3-1.1.5-1.8.6-.7 0-1.5-.1-2.3-.4l-2.8-1 1.3-.7-1.3 3.5-2.1-.8Zm3.3-2.4-.5-1.4 2.7 1c.6.3 1.1.3 1.6.1.4-.1.7-.4.9-1 .2-.4.2-.9 0-1.3-.3-.4-.7-.7-1.4-1l-2.6-1 1.3-.6-2 5.2Zm12 5.9-.7-.5-.4-.8.1-1a1.7 1.7 0 0 1 1.4-1.1 1.7 1.7 0 0 1 1.6.6 1.7 1.7 0 0 1 .3 1.7c-.1.4-.3.6-.6.8l-.8.4-.9-.1Zm9.2 5.7-.5-10.6 2.3.8.4 9.4-1.4-.5 6.6-6.8 2 .8-7.3 7.7-2.1-.8Zm6.8 2.6 3.5-9.2 2 .8-3.4 9.2-2-.8Zm4.3 1.6 3.5-9.2 4 1.5c.7.3 1.4.7 1.9 1.2s.8 1 1 1.7c0 .6 0 1.2-.2 2-.3.6-.7 1.1-1.2 1.5-.5.4-1.1.6-1.8.7-.7 0-1.4-.1-2.3-.4l-2.8-1.1 1.3-.6-1.3 3.5-2-.8Zm3.4-2.5-.6-1.3 2.7 1c.6.2 1.2.3 1.6.1.4-.1.7-.5 1-1 .1-.5 0-1-.1-1.3-.3-.4-.7-.8-1.3-1l-2.7-1 1.3-.7-2 5.2Z" fill="#16375C"/></g><g filter="url(#b)"><path fill="#FFF7CC" d="M28.5 6 259 236.5 238.5 257 8 26.5z"/><path d="m22 26.4 8.7-3.3 1.3 1.4-3.3 8.6-1.4-1.5 3-7.4.6.6-7.4 3-1.4-1.4Zm2.7 0 1.4-.6 3 3-.6 1.5-3.8-3.8Zm5.6 8.2 4.8-4.8-2-1.9 1.2-1.1 5.2 5.2-1.1 1-2-1.8-4.8 4.8-1.3-1.4Zm8.8 1.8 2.9 2.8-1.1 1.1-2.9-2.9 1.1-1Zm-2.3 2.5 3.2 3.2-1.1 1.2-4.6-4.6 6-6 4.4 4.5-1 1.1-3.2-3.1-3.7 3.7Zm3.2 5.4 6-5.9 1 1.1-.7 7.8-.6-.5 4.3-4.3 1.4 1.4-6 5.9-1.1-1.1.8-7.8.5.5-4.3 4.3-1.3-1.4Zm6.8 6.9 6-6 2.7 2.8c.6.6 1 1.3 1.3 2 .3.8.3 1.5.1 2.2a4 4 0 0 1-1.1 2c-.6.6-1.3 1-2 1.2a4 4 0 0 1-2.2-.2c-.7-.2-1.4-.7-2-1.3l-2.8-2.7Zm2.5.2 1.3 1.3c.4.4.8.7 1.2.8.5.1 1 .2 1.4 0 .4 0 .8-.3 1.2-.7.4-.4.6-.8.7-1.2v-1.3a3 3 0 0 0-.8-1.3L53 47.8l-3.7 3.6Zm4.5 6.8 6-6 1.4 1.4-6 6-1.4-1.4Zm2.8 2.8 6-6 1.1 1.2-1.7 6.7-.6-.6 6.7-1.7 1.1 1.1-5.9 6-1.3-1.3 4-4 .2.3L61 64l-.6-.6 1.3-5.4.3.3-4 4-1.3-1.3Zm13 5.8 2.8 2.9-1 1-3-2.8 1.1-1Zm-2.4 2.6 3.2 3.2-1 1.1-4.7-4.6 6-6 4.5 4.5-1.1 1.2-3.2-3.2-3.7 3.8Zm3.2 5.4 6-6 1.1 1.2-.8 7.8-.5-.6 4.3-4.3 1.3 1.4-6 6-1-1.2.7-7.8.6.6-4.3 4.2-1.4-1.3Zm8.1 8 4.8-4.7-1.9-2 1.1-1 5.2 5.1-1.1 1.1-1.9-1.9-4.8 4.8-1.4-1.3Zm6.7 7c-.4-.5-.8-1-1-1.5a4.3 4.3 0 0 1 4-6c.5 0 1 0 1.6.3.6.2 1.1.6 1.6 1 .4.5.8 1 1 1.6a4.3 4.3 0 0 1-5.7 5.6 5 5 0 0 1-1.5-1Zm1.2-1.2a2.7 2.7 0 0 0 1.8.8c.4 0 .7 0 1-.2.4-.1.7-.3 1-.6a2.8 2.8 0 0 0 .8-2c0-.3 0-.6-.2-1l-.6-.8-.9-.6a2.5 2.5 0 0 0-2 0 3 3 0 0 0-.9.7 2.7 2.7 0 0 0-.8 1.9c0 .3 0 .6.2 1l.6.8ZM94 96l-.4-.7v-.7c0-.3.2-.5.4-.8a1.5 1.5 0 0 1 1.5-.4 1.5 1.5 0 0 1 1 1.1 1.5 1.5 0 0 1-.3 1.5l-.7.4h-.8c-.3 0-.5-.2-.7-.4Zm2.6 5.1 8.6-3.3 1.3 1.4-3.3 8.6-1.4-1.5 3-7.4.6.6-7.4 3-1.4-1.4Zm2.6 0 1.4-.6 3 3-.6 1.5-3.8-3.8Zm5.6 8.2 4.8-4.8-1.9-1.9 1.1-1.1 5.2 5.2-1.1 1.1-2-1.9-4.7 4.8-1.4-1.4Zm8.8 1.8 2.9 2.8-1.1 1.1-2.9-2.9 1.1-1Zm-2.3 2.5 3.2 3.3-1.1 1-4.6-4.5 6-6 4.4 4.5-1 1.1-3.2-3.1-3.7 3.7Zm3.2 5.4 6-5.9 1 1.1-.7 7.8-.6-.5 4.3-4.3 1.4 1.4-6 5.9-1.1-1.1.8-7.8.5.5-4.3 4.3-1.3-1.4Zm6.8 6.9 6-6 2.7 2.8c.6.6 1 1.3 1.3 2 .3.8.3 1.5.1 2.2a4 4 0 0 1-1.1 2c-.6.6-1.3 1-2 1.2a4 4 0 0 1-2.2-.2c-.7-.2-1.4-.7-2-1.3l-2.8-2.7Zm2.5.2 1.3 1.3c.4.4.8.7 1.2.8.5.2 1 .2 1.4 0 .4 0 .8-.3 1.2-.7.4-.4.6-.8.7-1.2v-1.3a3 3 0 0 0-.8-1.3l-1.3-1.2-3.7 3.6Zm4.5 6.8 6-6 1.4 1.4-6 6-1.4-1.4Zm2.8 2.8 6-6 1.1 1.2-1.7 6.7-.6-.6 6.7-1.7 1.2 1.1-6 6-1.3-1.3 4-4 .2.3-5.3 1.3-.6-.6 1.3-5.4.3.3-4 4-1.3-1.3Zm13 5.8 2.8 2.9-1 1-3-2.8 1.1-1Zm-2.4 2.6 3.2 3.2-1 1.1-4.7-4.6 6-6 4.5 4.5-1.1 1.2-3.2-3.2-3.7 3.8Zm3.2 5.4 6-6 1.1 1.2-.8 7.8-.5-.6 4.3-4.3 1.3 1.4-6 6-1-1.2.7-7.8.6.6-4.3 4.3-1.4-1.4Zm8.1 8 4.8-4.7-1.9-2 1.2-1 5.1 5.1-1 1.1-2-1.9-4.8 4.9-1.4-1.4Zm6.7 7c-.4-.5-.8-1-1-1.5a4.3 4.3 0 0 1 .9-4.8c.4-.5.9-.8 1.4-1a4.2 4.2 0 0 1 3.3 0l1.6 1.1c.4.5.8 1 1 1.6a4.3 4.3 0 0 1-5.7 5.6 5 5 0 0 1-1.5-1Zm1.2-1.2c.3.3.5.5.9.6a2.5 2.5 0 0 0 2 0c.3-.1.6-.3.8-.6a2.8 2.8 0 0 0 .9-2c0-.3 0-.6-.2-1l-.6-.8-.9-.6a2.5 2.5 0 0 0-2 0 3 3 0 0 0-.9.7 2.7 2.7 0 0 0-.8 1.9c0 .3 0 .6.2 1l.6.8Zm7.7 7.3-.4-.7v-.7c0-.3.2-.5.4-.8a1.5 1.5 0 0 1 1.5-.4 1.5 1.5 0 0 1 1 1.1 1.5 1.5 0 0 1-.3 1.5l-.7.4h-.8c-.3 0-.5-.2-.7-.4Zm2.6 5.1 8.6-3.3 1.3 1.4-3.3 8.6-1.4-1.4 3-7.5.6.6-7.4 3-1.4-1.4Zm2.6 0 1.4-.6 3 3-.6 1.5-3.8-3.8Zm5.6 8.2 4.8-4.8-1.9-1.9 1.1-1.1 5.2 5.2-1.1 1.1-2-1.9-4.7 4.8-1.4-1.4Zm8.8 1.8 2.9 2.8-1.1 1.1-2.9-2.9 1.1-1ZM186 188l3.2 3.3-1.1 1-4.6-4.5 6-6 4.4 4.5-1 1.1-3.2-3.1-3.7 3.7Zm3.2 5.5 6-6 1 1.1-.7 7.8-.6-.5 4.3-4.3 1.4 1.4-6 5.9-1-1.1.7-7.8.5.5-4.3 4.3-1.3-1.3Zm6.8 6.8 6-6 2.7 2.8c.6.6 1 1.3 1.3 2 .3.8.3 1.5.1 2.2a4 4 0 0 1-1.1 2c-.6.6-1.3 1-2 1.2a4 4 0 0 1-2.2-.2c-.7-.2-1.4-.7-2-1.3l-2.8-2.7Zm2.5.3 1.3 1.2c.4.4.8.7 1.2.8.5.2 1 .2 1.4 0 .4 0 .8-.3 1.2-.7.4-.4.6-.8.7-1.2v-1.3a3 3 0 0 0-.8-1.3l-1.3-1.2-3.7 3.7Zm4.6 6.7 5.9-6 1.4 1.4-6 6-1.3-1.4Zm2.7 2.8 6-6 1.1 1.2-1.7 6.7-.6-.6 6.7-1.7 1.2 1.1-6 6-1.3-1.3 4-4 .2.3-5.3 1.3-.6-.6 1.3-5.4.3.3-4 4-1.3-1.3Zm13 5.8 2.8 2.9-1 1-3-2.8 1.2-1Zm-2.4 2.6 3.2 3.2-1 1.1-4.7-4.6 6-6 4.5 4.6-1.1 1-3.2-3-3.7 3.7Zm3.2 5.4 6-6 1.1 1.2-.8 7.8-.5-.6 4.3-4.3 1.3 1.4-6 6-1-1.2.7-7.8.6.6-4.3 4.3-1.4-1.4Zm8.1 8 4.8-4.7-1.9-2 1.2-1 5.1 5.1-1 1.1-2-1.9-4.8 4.9-1.4-1.4Zm6.7 7c-.4-.5-.8-1-1-1.5a4.3 4.3 0 0 1 0-3.3c0-.6.4-1 .8-1.5a4.2 4.2 0 0 1 4.8-.9c.6.2 1.1.6 1.6 1 .4.5.8 1 1 1.6a4.3 4.3 0 0 1-5.7 5.7 5 5 0 0 1-1.5-1.1Zm1.2-1.2a2.7 2.7 0 0 0 1.8.8c.4 0 .7 0 1-.2.4-.1.7-.3 1-.6a2.8 2.8 0 0 0 .8-2c0-.3 0-.6-.2-1l-.6-.8-.9-.6a2.5 2.5 0 0 0-2 0 3 3 0 0 0-.9.7 2.7 2.7 0 0 0-.8 1.9c0 .3 0 .6.2 1 .1.3.3.6.6.8Z" fill="#16375C"/></g><defs><filter id="a" x="5.5" y="39.8" width="292.9" height="138.9" filterUnits="userSpaceOnUse" color-interpolation-filters="sRGB"><feFlood flood-opacity="0" result="BackgroundImageFix"/><feColorMatrix in="SourceAlpha" values="0 0 0 0 0 0 0 0 0 0 0 0 0 0 0 0 0 0 127 0" result="hardAlpha"/><feOffset dy="2"/><feGaussianBlur stdDeviation="4"/><feColorMatrix values="0 0 0 0 0.129412 0 0 0 0 0.145098 0 0 0 0 0.160784 0 0 0 0.12 0"/><feBlend in2="BackgroundImageFix" result="effect1_dropShadow_9159_83"/><feBlend in="SourceGraphic" in2="effect1_dropShadow_9159_83" result="shape"/></filter><filter id="b" x="0" y="0" width="267" height="267" filterUnits="userSpaceOnUse" color-interpolation-filters="sRGB"><feFlood flood-opacity="0" result="BackgroundImageFix"/><feColorMatrix in="SourceAlpha" values="0 0 0 0 0 0 0 0 0 0 0 0 0 0 0 0 0 0 127 0" result="hardAlpha"/><feOffset dy="2"/><feGaussianBlur stdDeviation="4"/><feColorMatrix values="0 0 0 0 0.129412 0 0 0 0 0.145098 0 0 0 0 0.160784 0 0 0 0.12 0"/><feBlend in2="BackgroundImageFix" result="effect1_dropShadow_9159_83"/><feBlend in="SourceGraphic" in2="effect1_dropShadow_9159_83" result="shape"/></filter></defs></svg>